<svg xmlns="http://www.w3.org/2000/svg" xmlns:xlink="http://www.w3.org/1999/xlink" viewBox="0 0 155.52 290.01"><defs><style>.cls-1{fill:#ededed;}.cls-2{clip-path:url(#clip-path);}.cls-3{fill:#f2cb05;}.cls-10,.cls-11,.cls-12,.cls-13,.cls-14,.cls-15,.cls-16,.cls-17,.cls-18,.cls-19,.cls-20,.cls-21,.cls-22,.cls-23,.cls-24,.cls-25,.cls-26,.cls-27,.cls-28,.cls-29,.cls-30,.cls-31,.cls-32,.cls-33,.cls-34,.cls-35,.cls-36,.cls-37,.cls-38,.cls-39,.cls-4,.cls-40,.cls-41,.cls-42,.cls-43,.cls-44,.cls-45,.cls-46,.cls-47,.cls-48,.cls-49,.cls-5,.cls-50,.cls-51,.cls-52,.cls-53,.cls-54,.cls-55,.cls-56,.cls-57,.cls-58,.cls-59,.cls-6,.cls-60,.cls-61,.cls-62,.cls-63,.cls-64,.cls-65,.cls-66,.cls-67,.cls-68,.cls-69,.cls-7,.cls-70,.cls-71,.cls-72,.cls-73,.cls-8,.cls-9{fill:#f2f2f2;}.cls-4{opacity:0.29;}.cls-5{opacity:0.5;}.cls-6{opacity:0.43;}.cls-7{opacity:0.87;}.cls-8{opacity:0.35;}.cls-9{opacity:0.55;}.cls-10{opacity:0.27;}.cls-11{opacity:0.68;}.cls-12{opacity:0.31;}.cls-13{opacity:0.5;}.cls-14{opacity:0.47;}.cls-15{opacity:0.92;}.cls-16{opacity:0.11;}.cls-17{opacity:0.16;}.cls-18{opacity:0.89;}.cls-19{opacity:0.73;}.cls-20{opacity:0.6;}.cls-21{opacity:0.8;}.cls-22{opacity:0.25;}.cls-23{opacity:0.34;}.cls-24{opacity:0.02;}.cls-25{opacity:0.05;}.cls-26{opacity:0.15;}.cls-27{opacity:0.05;}.cls-28{opacity:0.09;}.cls-29{opacity:0.97;}.cls-30{opacity:0.78;}.cls-31{opacity:0.24;}.cls-32{opacity:0.33;}.cls-33{opacity:0.49;}.cls-34{opacity:0.61;}.cls-35{opacity:0.22;}.cls-36{opacity:0.95;}.cls-37{opacity:0.76;}.cls-38{opacity:0.14;}.cls-39{opacity:0.9;}.cls-40{opacity:0.66;}.cls-41{opacity:0.37;}.cls-42{opacity:0.03;}.cls-43{opacity:0.17;}.cls-44{opacity:0.33;}.cls-45{opacity:0.41;}.cls-46{opacity:0.4;}.cls-47{opacity:0.44;}.cls-48{opacity:0.26;}.cls-49{opacity:0.53;}.cls-50{opacity:0.74;}.cls-51{opacity:0.63;}.cls-52{opacity:0.77;}.cls-53{opacity:0.09;}.cls-54{opacity:0.25;}.cls-55{opacity:0.42;}.cls-56{opacity:0.93;}.cls-57{opacity:0.62;}.cls-58{opacity:0.95;}.cls-59{opacity:0.43;}.cls-60{opacity:0.63;}.cls-61{opacity:0.49;}.cls-62{opacity:0.47;}.cls-63{opacity:0.7;}.cls-64{opacity:0.39;}.cls-65{opacity:0.61;}.cls-66{opacity:0.2;}.cls-67{opacity:1;}.cls-68{opacity:0.34;}.cls-69{opacity:0.98;}.cls-70{opacity:0.96;}.cls-71{opacity:0.39;}.cls-72{opacity:0.64;}.cls-73{opacity:0.74;}</style><clipPath id="clip-path" transform="translate(26.7 5.83)"><rect class="cls-1" x="0.76" y="0.37" width="118.77" height="244.35" transform="translate(119.52 245.45) rotate(-179.65)"/></clipPath></defs><g id="Capa_2" data-name="Capa 2"><g id="Layer_1" data-name="Layer 1"><rect class="cls-1" x="0.76" y="0.37" width="118.77" height="244.35" transform="translate(146.22 251.27) rotate(-179.65)"/><g class="cls-2"><rect class="cls-3" x="-0.95" y="-5.44" width="125.42" height="253.7" transform="translate(149.47 249.02) rotate(-179.65)"/><polygon class="cls-4" points="154.71 165.12 154.72 162.66 111.81 179.53 154.71 165.12"/><polygon class="cls-5" points="154.86 139.78 154.88 137.27 111.04 154.51 154.86 139.78"/><polygon class="cls-6" points="154.75 157.65 154.79 152.01 56.37 190.71 154.75 157.65"/><polygon class="cls-7" points="155.04 111.13 155.07 105.79 61.87 142.44 155.04 111.13"/><polygon class="cls-8" points="155.12 97.97 155.16 92.48 59.34 130.15 155.12 97.97"/><polygon class="cls-9" points="154.9 133.72 154.93 129.84 87.11 156.5 154.9 133.72"/><polygon class="cls-10" points="154.46 204.69 154.51 197.3 25.43 248.05 154.46 204.69"/><polygon class="cls-11" points="154.39 216.8 154.43 210.48 44.06 253.87 154.39 216.8"/><polygon class="cls-12" points="154.58 185.54 154.6 181.84 90.05 207.22 154.58 185.54"/><polygon class="cls-13" points="154.76 155.87 154.77 154.44 129.78 164.26 154.76 155.87"/><polygon class="cls-14" points="154.66 172.6 154.7 166.27 44.15 209.73 154.66 172.6"/><polygon class="cls-15" points="154.45 206.89 154.5 198.17 2.23 258.04 154.45 206.89"/><polygon class="cls-16" points="155.19 86.21 155.2 85.79 147.81 88.69 155.19 86.21"/><polygon class="cls-17" points="154.35 222.72 154.36 220.57 116.86 235.32 154.35 222.72"/><polygon class="cls-18" points="154.67 170.93 154.68 168.99 120.87 182.29 154.67 170.93"/><polygon class="cls-19" points="154.72 162.78 154.77 154.74 14.2 210 154.72 162.78"/><polygon class="cls-20" points="155.52 34.19 155.52 33.67 146.41 37.25 155.52 34.19"/><polygon class="cls-21" points="154.17 251.17 154.21 245.32 51.99 285.51 154.17 251.17"/><polygon class="cls-22" points="155.16 92.23 155.18 88.39 88.08 114.77 155.16 92.23"/><polygon class="cls-23" points="154.32 228.03 154.35 223.27 71.08 256 154.32 228.03"/><polygon class="cls-24" points="154.63 177.84 154.64 176.1 124.19 188.07 154.63 177.84"/><polygon class="cls-25" points="155.28 72.75 155.3 68.65 83.75 96.79 155.28 72.75"/><polygon class="cls-26" points="154.5 198.8 154.51 196.32 111.17 213.36 154.5 198.8"/><polygon class="cls-27" points="155.16 91.77 155.16 91.28 146.56 94.66 155.16 91.77"/><polygon class="cls-28" points="154.25 238.18 154.31 229.34 0 290.01 154.25 238.18"/><polygon class="cls-29" points="155.08 104.2 155.12 98.49 55.46 137.67 155.08 104.2"/><polygon class="cls-30" points="154.23 241.64 154.27 235.32 43.8 278.75 154.23 241.64"/><polygon class="cls-31" points="155.41 52.15 155.42 49.43 107.93 68.1 155.41 52.15"/><polygon class="cls-32" points="154.91 131.44 154.93 129.4 119.41 143.37 154.91 131.44"/><polygon class="cls-33" points="154.65 174.2 154.69 166.99 28.7 216.52 154.65 174.2"/><polygon class="cls-34" points="154.8 149.46 154.83 144.71 71.86 177.33 154.8 149.46"/><polygon class="cls-35" points="154.34 223.39 154.37 219.46 85.79 246.42 154.34 223.39"/><polygon class="cls-36" points="155.38 56.04 155.39 55.03 137.69 61.99 155.38 56.04"/><polygon class="cls-37" points="155.04 111.15 155.04 110.7 147.3 113.75 155.04 111.15"/><polygon class="cls-38" points="154.82 146.37 154.84 143.85 110.84 161.15 154.82 146.37"/><polygon class="cls-39" points="154.48 202.01 154.48 200.94 135.88 208.26 154.48 202.01"/><polygon class="cls-40" points="154.38 217.18 154.39 216.04 134.56 223.84 154.38 217.18"/><polygon class="cls-41" points="154.7 166.55 154.75 158.86 20.51 211.64 154.7 166.55"/><polygon class="cls-42" points="154.94 127.66 154.97 123.05 74.46 154.7 154.94 127.66"/><polygon class="cls-43" points="154.26 236.99 154.28 233.87 99.79 255.29 154.26 236.99"/><polygon class="cls-44" points="154.72 162.82 154.75 157.71 65.36 192.85 154.72 162.82"/><polygon class="cls-45" points="154.91 131.51 154.93 129.45 119.03 143.56 154.91 131.51"/><polygon class="cls-46" points="154.56 188.6 154.61 180.82 18.7 234.25 154.56 188.6"/><polygon class="cls-47" points="155.46 43.66 155.47 42.55 136.08 50.16 155.46 43.66"/><polygon class="cls-48" points="154.69 167.65 154.7 166.27 130.56 175.76 154.69 167.65"/><polygon class="cls-49" points="154.73 161.12 154.75 157.51 91.68 182.31 154.73 161.12"/><polygon class="cls-50" points="155.25 77.71 155.27 74.23 94.53 98.11 155.25 77.71"/><polygon class="cls-51" points="154.98 120.83 155 117.37 94.67 141.09 154.98 120.83"/><polygon class="cls-52" points="154.5 198.28 154.52 194.78 93.42 218.8 154.5 198.28"/><polygon class="cls-53" points="154.64 176.34 154.66 171.98 78.53 201.92 154.64 176.34"/><polygon class="cls-54" points="154.49 200.35 154.51 195.9 76.76 226.47 154.49 200.35"/><polygon class="cls-55" points="155.01 116.24 155.01 115.82 147.65 118.71 155.01 116.24"/><polygon class="cls-56" points="154.32 227.4 154.33 225.52 121.48 238.43 154.32 227.4"/><polygon class="cls-57" points="154.72 162.35 154.74 159.57 106.22 178.65 154.72 162.35"/><polygon class="cls-58" points="154.46 204.28 154.47 202.66 126.18 213.78 154.46 204.28"/><polygon class="cls-59" points="155.46 44.25 155.47 41.29 103.74 61.63 155.46 44.25"/><polygon class="cls-60" points="154.2 246.44 154.22 243.83 108.65 261.75 154.2 246.44"/><polygon class="cls-61" points="154.28 233.91 154.29 231.5 112.19 248.06 154.28 233.91"/><polygon class="cls-62" points="154.85 142.22 154.9 134.67 23.1 186.49 154.85 142.22"/><polygon class="cls-63" points="154.48 201.61 154.51 196.97 73.55 228.8 154.48 201.61"/><polygon class="cls-64" points="155.25 77.16 155.25 76.85 149.84 78.98 155.25 77.16"/><polygon class="cls-65" points="154.82 147.18 154.85 142.22 68.28 176.26 154.82 147.18"/><polygon class="cls-66" points="154.56 189.25 154.6 182.21 31.56 230.59 154.56 189.25"/><polygon class="cls-67" points="154.74 159.48 154.76 155.8 90.48 181.08 154.74 159.48"/><polygon class="cls-68" points="155.15 92.76 155.18 88.2 75.58 119.5 155.15 92.76"/><polygon class="cls-69" points="155.06 108.16 155.07 106.81 131.47 116.09 155.06 108.16"/><polygon class="cls-70" points="155.31 67.34 155.32 65.18 117.64 80 155.31 67.34"/><polygon class="cls-71" points="154.94 127.2 154.94 126.95 150.65 128.64 154.94 127.2"/><polygon class="cls-72" points="154.64 175.13 154.69 167.11 14.56 222.21 154.64 175.13"/><polygon class="cls-73" points="154.88 137.27 154.88 136.78 146.42 140.11 154.88 137.27"/></g></g></g></svg>