<svg xmlns="http://www.w3.org/2000/svg" xmlns:xlink="http://www.w3.org/1999/xlink" viewBox="0 0 154.68 290.1"><defs><style>.cls-1{fill:#ededed;}.cls-2{clip-path:url(#clip-path);}.cls-3{fill:#eaf205;}.cls-10,.cls-11,.cls-12,.cls-13,.cls-14,.cls-15,.cls-16,.cls-17,.cls-18,.cls-19,.cls-20,.cls-21,.cls-22,.cls-23,.cls-24,.cls-25,.cls-26,.cls-27,.cls-28,.cls-29,.cls-30,.cls-31,.cls-32,.cls-33,.cls-34,.cls-35,.cls-36,.cls-37,.cls-38,.cls-39,.cls-4,.cls-40,.cls-41,.cls-42,.cls-43,.cls-44,.cls-45,.cls-46,.cls-47,.cls-48,.cls-49,.cls-5,.cls-50,.cls-51,.cls-52,.cls-53,.cls-54,.cls-55,.cls-56,.cls-57,.cls-58,.cls-59,.cls-6,.cls-60,.cls-61,.cls-62,.cls-63,.cls-64,.cls-65,.cls-66,.cls-67,.cls-68,.cls-69,.cls-7,.cls-70,.cls-71,.cls-72,.cls-73,.cls-8,.cls-9{fill:#f2f2f2;}.cls-4{opacity:0.29;}.cls-5{opacity:0.5;}.cls-6{opacity:0.43;}.cls-7{opacity:0.87;}.cls-8{opacity:0.35;}.cls-9{opacity:0.55;}.cls-10{opacity:0.27;}.cls-11{opacity:0.68;}.cls-12{opacity:0.31;}.cls-13{opacity:0.5;}.cls-14{opacity:0.47;}.cls-15{opacity:0.92;}.cls-16{opacity:0.11;}.cls-17{opacity:0.16;}.cls-18{opacity:0.89;}.cls-19{opacity:0.73;}.cls-20{opacity:0.6;}.cls-21{opacity:0.8;}.cls-22{opacity:0.25;}.cls-23{opacity:0.34;}.cls-24{opacity:0.02;}.cls-25{opacity:0.05;}.cls-26{opacity:0.15;}.cls-27{opacity:0.05;}.cls-28{opacity:0.09;}.cls-29{opacity:0.97;}.cls-30{opacity:0.78;}.cls-31{opacity:0.24;}.cls-32{opacity:0.33;}.cls-33{opacity:0.49;}.cls-34{opacity:0.61;}.cls-35{opacity:0.22;}.cls-36{opacity:0.95;}.cls-37{opacity:0.76;}.cls-38{opacity:0.14;}.cls-39{opacity:0.9;}.cls-40{opacity:0.66;}.cls-41{opacity:0.37;}.cls-42{opacity:0.03;}.cls-43{opacity:0.17;}.cls-44{opacity:0.33;}.cls-45{opacity:0.41;}.cls-46{opacity:0.4;}.cls-47{opacity:0.44;}.cls-48{opacity:0.26;}.cls-49{opacity:0.53;}.cls-50{opacity:0.74;}.cls-51{opacity:0.63;}.cls-52{opacity:0.77;}.cls-53{opacity:0.09;}.cls-54{opacity:0.25;}.cls-55{opacity:0.42;}.cls-56{opacity:0.93;}.cls-57{opacity:0.62;}.cls-58{opacity:0.95;}.cls-59{opacity:0.43;}.cls-60{opacity:0.63;}.cls-61{opacity:0.49;}.cls-62{opacity:0.47;}.cls-63{opacity:0.7;}.cls-64{opacity:0.39;}.cls-65{opacity:0.61;}.cls-66{opacity:0.2;}.cls-67{opacity:1;}.cls-68{opacity:0.34;}.cls-69{opacity:0.98;}.cls-70{opacity:0.96;}.cls-71{opacity:0.39;}.cls-72{opacity:0.64;}.cls-73{opacity:0.74;}</style><clipPath id="clip-path" transform="translate(26.57 5.82)"><rect class="cls-1" x="0.36" y="0.17" width="118.77" height="244.35" transform="translate(119.13 244.87) rotate(-179.83)"/></clipPath></defs><g id="Capa_2" data-name="Capa 2"><g id="Layer_1" data-name="Layer 1"><rect class="cls-1" x="0.36" y="0.17" width="118.77" height="244.35" transform="translate(145.69 250.69) rotate(-179.83)"/><g class="cls-2"><rect class="cls-3" x="-1.35" y="-5.64" width="125.42" height="253.7" transform="translate(148.93 248.42) rotate(-179.83)"/><polygon class="cls-4" points="154.3 164.7 154.3 162.24 111.45 179.25 154.3 164.7"/><polygon class="cls-5" points="154.37 139.36 154.38 136.85 110.59 154.23 154.37 139.36"/><polygon class="cls-6" points="154.32 157.23 154.33 151.59 56.04 190.61 154.32 157.23"/><polygon class="cls-7" points="154.45 110.71 154.47 105.37 61.39 142.32 154.45 110.71"/><polygon class="cls-8" points="154.49 97.54 154.51 92.06 58.81 130.04 154.49 97.54"/><polygon class="cls-9" points="154.39 133.3 154.4 129.41 86.67 156.3 154.39 133.3"/><polygon class="cls-10" points="154.18 204.27 154.2 196.88 25.3 248.05 154.18 204.27"/><polygon class="cls-11" points="154.15 216.38 154.16 210.06 43.94 253.81 154.15 216.38"/><polygon class="cls-12" points="154.24 185.12 154.25 181.42 89.78 207.01 154.24 185.12"/><polygon class="cls-13" points="154.32 155.44 154.33 154.01 129.37 163.92 154.32 155.44"/><polygon class="cls-14" points="154.27 172.18 154.29 165.85 43.89 209.67 154.27 172.18"/><polygon class="cls-15" points="154.17 206.47 154.2 197.75 2.12 258.12 154.17 206.47"/><polygon class="cls-16" points="154.53 85.79 154.53 85.37 147.15 88.29 154.53 85.79"/><polygon class="cls-17" points="154.13 222.3 154.13 220.15 116.68 235.02 154.13 222.3"/><polygon class="cls-18" points="154.28 170.51 154.28 168.57 120.52 181.98 154.28 170.51"/><polygon class="cls-19" points="154.3 162.36 154.33 154.31 13.94 210.04 154.3 162.36"/><polygon class="cls-20" points="154.68 33.77 154.68 33.24 145.58 36.86 154.68 33.77"/><polygon class="cls-21" points="154.04 250.75 154.06 244.9 51.98 285.42 154.04 250.75"/><polygon class="cls-22" points="154.51 91.81 154.52 87.97 87.5 114.57 154.51 91.81"/><polygon class="cls-23" points="154.11 227.61 154.13 222.85 70.97 255.86 154.11 227.61"/><polygon class="cls-24" points="154.26 177.42 154.26 175.68 123.86 187.75 154.26 177.42"/><polygon class="cls-25" points="154.56 72.33 154.58 68.23 83.11 96.6 154.56 72.33"/><polygon class="cls-26" points="154.2 198.38 154.21 195.9 110.92 213.08 154.2 198.38"/><polygon class="cls-27" points="154.51 91.35 154.51 90.86 145.91 94.27 154.51 91.35"/><polygon class="cls-28" points="154.08 237.76 154.11 228.92 0 290.1 154.08 237.76"/><polygon class="cls-29" points="154.47 103.77 154.49 98.07 54.96 137.58 154.47 103.77"/><polygon class="cls-30" points="154.07 241.22 154.09 234.9 43.77 278.69 154.07 241.22"/><polygon class="cls-31" points="154.63 51.73 154.63 49.01 107.2 67.83 154.63 51.73"/><polygon class="cls-32" points="154.39 131.02 154.4 128.98 118.92 143.06 154.39 131.02"/><polygon class="cls-33" points="154.27 173.78 154.29 166.56 28.46 216.51 154.27 173.78"/><polygon class="cls-34" points="154.34 149.04 154.35 144.29 71.49 177.18 154.34 149.04"/><polygon class="cls-35" points="154.13 222.97 154.14 219.04 85.65 246.23 154.13 222.97"/><polygon class="cls-36" points="154.61 55.62 154.62 54.6 136.94 61.62 154.61 55.62"/><polygon class="cls-37" points="154.45 110.73 154.45 110.28 146.72 113.35 154.45 110.73"/><polygon class="cls-38" points="154.35 145.95 154.36 143.43 110.41 160.87 154.35 145.95"/><polygon class="cls-39" points="154.19 201.59 154.19 200.52 135.61 207.9 154.19 201.59"/><polygon class="cls-40" points="154.14 216.76 154.15 215.62 134.35 223.48 154.14 216.76"/><polygon class="cls-41" points="154.29 166.13 154.31 158.44 20.25 211.66 154.29 166.13"/><polygon class="cls-42" points="154.41 127.23 154.42 122.63 74.01 154.54 154.41 127.23"/><polygon class="cls-43" points="154.09 236.57 154.09 233.45 99.67 255.05 154.09 236.57"/><polygon class="cls-44" points="154.3 162.4 154.32 157.28 65.04 192.72 154.3 162.4"/><polygon class="cls-45" points="154.39 131.09 154.4 129.03 118.55 143.26 154.39 131.09"/><polygon class="cls-46" points="154.23 188.18 154.25 180.4 18.52 234.28 154.23 188.18"/><polygon class="cls-47" points="154.65 43.23 154.65 42.12 135.29 49.81 154.65 43.23"/><polygon class="cls-48" points="154.29 167.23 154.29 165.85 130.18 175.42 154.29 167.23"/><polygon class="cls-49" points="154.31 160.7 154.32 157.09 91.32 182.09 154.31 160.7"/><polygon class="cls-50" points="154.55 77.29 154.56 73.81 93.9 97.89 154.55 77.29"/><polygon class="cls-51" points="154.43 120.4 154.44 116.95 94.18 140.87 154.43 120.4"/><polygon class="cls-52" points="154.2 197.86 154.21 194.36 93.18 218.58 154.2 197.86"/><polygon class="cls-53" points="154.26 175.92 154.28 171.56 78.24 201.75 154.26 175.92"/><polygon class="cls-54" points="154.19 199.93 154.21 195.48 76.56 226.3 154.19 199.93"/><polygon class="cls-55" points="154.44 115.82 154.44 115.39 147.09 118.31 154.44 115.82"/><polygon class="cls-56" points="154.11 226.98 154.12 225.1 121.31 238.12 154.11 226.98"/><polygon class="cls-57" points="154.3 161.93 154.31 159.15 105.85 178.39 154.3 161.93"/><polygon class="cls-58" points="154.18 203.86 154.19 202.24 125.93 213.45 154.18 203.86"/><polygon class="cls-59" points="154.65 43.83 154.66 40.86 102.99 61.37 154.65 43.83"/><polygon class="cls-60" points="154.06 246.02 154.07 243.41 108.55 261.48 154.06 246.02"/><polygon class="cls-61" points="154.09 233.5 154.1 231.08 112.06 247.78 154.09 233.5"/><polygon class="cls-62" points="154.36 141.79 154.38 134.25 22.76 186.5 154.36 141.79"/><polygon class="cls-63" points="154.19 201.19 154.2 196.55 73.35 228.65 154.19 201.19"/><polygon class="cls-64" points="154.55 76.74 154.55 76.43 149.15 78.57 154.55 76.74"/><polygon class="cls-65" points="154.35 146.76 154.36 141.8 67.9 176.12 154.35 146.76"/><polygon class="cls-66" points="154.22 188.83 154.25 181.79 31.36 230.57 154.22 188.83"/><polygon class="cls-67" points="154.31 159.06 154.32 155.38 90.12 180.87 154.31 159.06"/><polygon class="cls-68" points="154.51 92.33 154.52 87.78 75.02 119.33 154.51 92.33"/><polygon class="cls-69" points="154.46 107.74 154.47 106.39 130.9 115.74 154.46 107.74"/><polygon class="cls-70" points="154.58 66.92 154.59 64.76 116.95 79.7 154.58 66.92"/><polygon class="cls-71" points="154.41 126.78 154.41 126.53 150.12 128.23 154.41 126.78"/><polygon class="cls-72" points="154.27 174.71 154.29 166.69 14.33 222.24 154.27 174.71"/><polygon class="cls-73" points="154.38 136.85 154.38 136.36 145.93 139.72 154.38 136.85"/></g></g></g></svg>