<svg xmlns="http://www.w3.org/2000/svg" xmlns:xlink="http://www.w3.org/1999/xlink" viewBox="0 0 155.47 290.02"><defs><style>.cls-1{fill:#ededed;}.cls-2{clip-path:url(#clip-path);}.cls-3{fill:#eaf205;}.cls-10,.cls-11,.cls-12,.cls-13,.cls-14,.cls-15,.cls-16,.cls-17,.cls-18,.cls-19,.cls-20,.cls-21,.cls-22,.cls-23,.cls-24,.cls-25,.cls-26,.cls-27,.cls-28,.cls-29,.cls-30,.cls-31,.cls-32,.cls-33,.cls-34,.cls-35,.cls-36,.cls-37,.cls-38,.cls-39,.cls-4,.cls-40,.cls-41,.cls-42,.cls-43,.cls-44,.cls-45,.cls-46,.cls-47,.cls-48,.cls-49,.cls-5,.cls-50,.cls-51,.cls-52,.cls-53,.cls-54,.cls-55,.cls-56,.cls-57,.cls-58,.cls-59,.cls-6,.cls-60,.cls-61,.cls-62,.cls-63,.cls-64,.cls-65,.cls-66,.cls-67,.cls-68,.cls-69,.cls-7,.cls-70,.cls-71,.cls-72,.cls-73,.cls-8,.cls-9{fill:#f2f2f2;}.cls-4{opacity:0.29;}.cls-5{opacity:0.5;}.cls-6{opacity:0.43;}.cls-7{opacity:0.87;}.cls-8{opacity:0.35;}.cls-9{opacity:0.55;}.cls-10{opacity:0.27;}.cls-11{opacity:0.68;}.cls-12{opacity:0.31;}.cls-13{opacity:0.5;}.cls-14{opacity:0.47;}.cls-15{opacity:0.92;}.cls-16{opacity:0.11;}.cls-17{opacity:0.16;}.cls-18{opacity:0.89;}.cls-19{opacity:0.73;}.cls-20{opacity:0.6;}.cls-21{opacity:0.8;}.cls-22{opacity:0.25;}.cls-23{opacity:0.34;}.cls-24{opacity:0.02;}.cls-25{opacity:0.05;}.cls-26{opacity:0.15;}.cls-27{opacity:0.05;}.cls-28{opacity:0.09;}.cls-29{opacity:0.97;}.cls-30{opacity:0.78;}.cls-31{opacity:0.24;}.cls-32{opacity:0.33;}.cls-33{opacity:0.49;}.cls-34{opacity:0.61;}.cls-35{opacity:0.22;}.cls-36{opacity:0.95;}.cls-37{opacity:0.76;}.cls-38{opacity:0.14;}.cls-39{opacity:0.9;}.cls-40{opacity:0.66;}.cls-41{opacity:0.37;}.cls-42{opacity:0.03;}.cls-43{opacity:0.17;}.cls-44{opacity:0.33;}.cls-45{opacity:0.41;}.cls-46{opacity:0.4;}.cls-47{opacity:0.44;}.cls-48{opacity:0.26;}.cls-49{opacity:0.53;}.cls-50{opacity:0.74;}.cls-51{opacity:0.63;}.cls-52{opacity:0.77;}.cls-53{opacity:0.09;}.cls-54{opacity:0.25;}.cls-55{opacity:0.42;}.cls-56{opacity:0.93;}.cls-57{opacity:0.62;}.cls-58{opacity:0.95;}.cls-59{opacity:0.43;}.cls-60{opacity:0.63;}.cls-61{opacity:0.49;}.cls-62{opacity:0.47;}.cls-63{opacity:0.7;}.cls-64{opacity:0.39;}.cls-65{opacity:0.61;}.cls-66{opacity:0.2;}.cls-67{opacity:1;}.cls-68{opacity:0.34;}.cls-69{opacity:0.98;}.cls-70{opacity:0.96;}.cls-71{opacity:0.39;}.cls-72{opacity:0.64;}.cls-73{opacity:0.74;}</style><clipPath id="clip-path" transform="translate(8.55 39.14)"><rect class="cls-1" x="0.73" y="0.35" width="118.77" height="244.35" transform="translate(0.73 -0.36) rotate(0.34)"/></clipPath></defs><g id="Capa_2" data-name="Capa 2"><g id="Layer_1" data-name="Layer 1"><rect class="cls-1" x="0.73" y="0.35" width="118.77" height="244.35" transform="translate(9.28 38.78) rotate(0.34)"/><g class="cls-2"><rect class="cls-3" x="-4.22" y="-3.19" width="125.42" height="253.7" transform="translate(9.29 38.79) rotate(0.34)"/><polygon class="cls-4" points="0.79 124.92 0.77 127.38 43.68 110.5 0.79 124.92"/><polygon class="cls-5" points="0.64 150.26 0.62 152.77 44.45 135.53 0.64 150.26"/><polygon class="cls-6" points="0.74 132.4 0.71 138.03 99.12 99.31 0.74 132.4"/><polygon class="cls-7" points="0.46 178.92 0.43 184.25 93.62 147.59 0.46 178.92"/><polygon class="cls-8" points="0.39 192.08 0.35 197.57 96.17 159.87 0.39 192.08"/><polygon class="cls-9" points="0.6 156.33 0.57 160.21 68.39 133.53 0.6 156.33"/><polygon class="cls-10" points="1.02 85.36 0.98 92.75 130.04 41.97 1.02 85.36"/><polygon class="cls-11" points="1.09 73.25 1.06 79.57 111.41 36.15 1.09 73.25"/><polygon class="cls-12" points="0.91 104.51 0.89 108.2 65.43 82.81 0.91 104.51"/><polygon class="cls-13" points="0.73 134.18 0.72 135.61 25.71 125.78 0.73 134.18"/><polygon class="cls-14" points="0.83 117.45 0.79 123.78 111.33 80.29 0.83 117.45"/><polygon class="cls-15" points="1.04 83.15 0.98 91.87 153.25 31.97 1.04 83.15"/><polygon class="cls-16" points="0.31 203.83 0.31 204.26 7.7 201.35 0.31 203.83"/><polygon class="cls-17" points="1.13 67.32 1.12 69.47 38.62 54.72 1.13 67.32"/><polygon class="cls-18" points="0.82 119.11 0.81 121.05 34.62 107.75 0.82 119.11"/><polygon class="cls-19" points="0.77 127.26 0.72 135.31 141.28 80.01 0.77 127.26"/><polygon class="cls-20" points="0 255.86 0 256.38 9.11 252.79 0 255.86"/><polygon class="cls-21" points="1.3 38.87 1.27 44.72 103.47 4.51 1.3 38.87"/><polygon class="cls-22" points="0.35 197.81 0.33 201.66 67.43 175.26 0.35 197.81"/><polygon class="cls-23" points="1.16 62.01 1.13 66.78 84.4 34.02 1.16 62.01"/><polygon class="cls-24" points="0.86 112.2 0.85 113.94 31.3 101.97 0.86 112.2"/><polygon class="cls-25" points="0.23 217.3 0.21 221.39 71.76 193.24 0.23 217.3"/><polygon class="cls-26" points="0.99 91.25 0.97 93.73 44.31 76.68 0.99 91.25"/><polygon class="cls-27" points="0.35 198.28 0.34 198.77 8.95 195.38 0.35 198.28"/><polygon class="cls-28" points="1.22 51.87 1.17 60.7 155.47 0 1.22 51.87"/><polygon class="cls-29" points="0.42 185.85 0.39 191.56 100.04 152.35 0.42 185.85"/><polygon class="cls-30" points="1.24 48.4 1.21 54.73 111.67 11.27 1.24 48.4"/><polygon class="cls-31" points="0.11 237.9 0.09 240.62 47.58 221.93 0.11 237.9"/><polygon class="cls-32" points="0.58 158.61 0.57 160.64 36.09 146.67 0.58 158.61"/><polygon class="cls-33" points="0.84 115.84 0.8 123.06 126.78 73.5 0.84 115.84"/><polygon class="cls-34" points="0.69 140.58 0.66 145.33 83.63 112.69 0.69 140.58"/><polygon class="cls-35" points="1.14 66.66 1.11 70.59 69.68 43.61 1.14 66.66"/><polygon class="cls-36" points="0.13 234 0.13 235.02 17.83 228.06 0.13 234"/><polygon class="cls-37" points="0.46 178.9 0.46 179.34 8.21 176.29 0.46 178.9"/><polygon class="cls-38" points="0.67 143.68 0.66 146.2 44.66 128.89 0.67 143.68"/><polygon class="cls-39" points="1.01 88.03 1 89.1 19.61 81.78 1.01 88.03"/><polygon class="cls-40" points="1.1 72.87 1.09 74 20.92 66.2 1.1 72.87"/><polygon class="cls-41" points="0.8 123.5 0.75 131.18 134.97 78.38 0.8 123.5"/><polygon class="cls-42" points="0.56 162.39 0.54 167 81.04 135.33 0.56 162.39"/><polygon class="cls-43" points="1.22 53.05 1.2 56.17 55.68 34.74 1.22 53.05"/><polygon class="cls-44" points="0.77 127.22 0.74 132.34 90.13 97.17 0.77 127.22"/><polygon class="cls-45" points="0.58 158.54 0.57 160.59 36.46 146.47 0.58 158.54"/><polygon class="cls-46" points="0.93 101.44 0.88 109.22 136.77 55.76 0.93 101.44"/><polygon class="cls-47" points="0.06 246.39 0.05 247.5 19.43 239.88 0.06 246.39"/><polygon class="cls-48" points="0.8 122.4 0.79 123.78 24.93 114.28 0.8 122.4"/><polygon class="cls-49" points="0.76 128.92 0.74 132.54 63.81 107.72 0.76 128.92"/><polygon class="cls-50" points="0.26 212.34 0.24 215.81 60.98 191.92 0.26 212.34"/><polygon class="cls-51" points="0.52 169.22 0.5 172.68 60.83 148.94 0.52 169.22"/><polygon class="cls-52" points="0.98 91.77 0.96 95.27 62.06 71.23 0.98 91.77"/><polygon class="cls-53" points="0.85 113.7 0.83 118.06 76.95 88.11 0.85 113.7"/><polygon class="cls-54" points="1 89.7 0.97 94.15 78.72 63.56 1 89.7"/><polygon class="cls-55" points="0.49 173.81 0.49 174.23 7.85 171.33 0.49 173.81"/><polygon class="cls-56" points="1.16 62.65 1.15 64.53 33.99 51.61 1.16 62.65"/><polygon class="cls-57" points="0.77 127.7 0.75 130.48 49.27 111.39 0.77 127.7"/><polygon class="cls-58" points="1.02 85.77 1.01 87.39 29.3 76.26 1.02 85.77"/><polygon class="cls-59" points="0.06 245.8 0.05 248.76 51.78 228.41 0.06 245.8"/><polygon class="cls-60" points="1.27 43.61 1.26 46.22 46.83 28.29 1.27 43.61"/><polygon class="cls-61" points="1.2 56.13 1.18 58.54 43.28 41.98 1.2 56.13"/><polygon class="cls-62" points="0.65 147.83 0.6 155.38 132.39 103.53 0.65 147.83"/><polygon class="cls-63" points="1 88.44 0.98 93.07 81.93 61.23 1 88.44"/><polygon class="cls-64" points="0.26 212.89 0.26 213.19 5.67 211.07 0.26 212.89"/><polygon class="cls-65" points="0.68 142.87 0.65 147.82 87.21 113.77 0.68 142.87"/><polygon class="cls-66" points="0.93 100.79 0.89 107.83 123.92 59.43 0.93 100.79"/><polygon class="cls-67" points="0.75 130.56 0.73 134.24 65.01 108.96 0.75 130.56"/><polygon class="cls-68" points="0.35 197.29 0.33 201.84 79.92 170.53 0.35 197.29"/><polygon class="cls-69" points="0.45 181.88 0.44 183.23 24.03 173.95 0.45 181.88"/><polygon class="cls-70" points="0.2 222.71 0.19 224.86 37.87 210.04 0.2 222.71"/><polygon class="cls-71" points="0.56 162.85 0.56 163.09 4.85 161.41 0.56 162.85"/><polygon class="cls-72" points="0.85 114.91 0.8 122.94 140.92 67.81 0.85 114.91"/><polygon class="cls-73" points="0.62 152.78 0.62 153.26 9.08 149.93 0.62 152.78"/></g></g></g></svg>