<svg xmlns="http://www.w3.org/2000/svg" xmlns:xlink="http://www.w3.org/1999/xlink" viewBox="0 0 154.47 290.12"><defs><style>.cls-1{fill:#ededed;}.cls-2{clip-path:url(#clip-path);}.cls-3{fill:#f2f2f2;}.cls-10,.cls-11,.cls-12,.cls-13,.cls-14,.cls-15,.cls-16,.cls-17,.cls-18,.cls-19,.cls-20,.cls-21,.cls-22,.cls-23,.cls-24,.cls-25,.cls-26,.cls-27,.cls-28,.cls-29,.cls-30,.cls-31,.cls-32,.cls-33,.cls-34,.cls-35,.cls-36,.cls-37,.cls-38,.cls-39,.cls-4,.cls-40,.cls-41,.cls-42,.cls-43,.cls-44,.cls-45,.cls-46,.cls-47,.cls-48,.cls-49,.cls-5,.cls-50,.cls-51,.cls-52,.cls-53,.cls-54,.cls-55,.cls-56,.cls-57,.cls-58,.cls-59,.cls-6,.cls-60,.cls-61,.cls-62,.cls-63,.cls-64,.cls-65,.cls-66,.cls-67,.cls-68,.cls-69,.cls-7,.cls-70,.cls-71,.cls-72,.cls-73,.cls-8,.cls-9{fill:#eaf205;}.cls-4{opacity:0.29;}.cls-5{opacity:0.5;}.cls-6{opacity:0.43;}.cls-7{opacity:0.87;}.cls-8{opacity:0.35;}.cls-9{opacity:0.55;}.cls-10{opacity:0.27;}.cls-11{opacity:0.68;}.cls-12{opacity:0.31;}.cls-13{opacity:0.5;}.cls-14{opacity:0.47;}.cls-15{opacity:0.92;}.cls-16{opacity:0.11;}.cls-17{opacity:0.16;}.cls-18{opacity:0.89;}.cls-19{opacity:0.73;}.cls-20{opacity:0.6;}.cls-21{opacity:0.8;}.cls-22{opacity:0.25;}.cls-23{opacity:0.34;}.cls-24{opacity:0.02;}.cls-25{opacity:0.05;}.cls-26{opacity:0.15;}.cls-27{opacity:0.05;}.cls-28{opacity:0.09;}.cls-29{opacity:0.97;}.cls-30{opacity:0.78;}.cls-31{opacity:0.24;}.cls-32{opacity:0.33;}.cls-33{opacity:0.49;}.cls-34{opacity:0.61;}.cls-35{opacity:0.22;}.cls-36{opacity:0.95;}.cls-37{opacity:0.76;}.cls-38{opacity:0.14;}.cls-39{opacity:0.9;}.cls-40{opacity:0.66;}.cls-41{opacity:0.37;}.cls-42{opacity:0.03;}.cls-43{opacity:0.17;}.cls-44{opacity:0.33;}.cls-45{opacity:0.41;}.cls-46{opacity:0.4;}.cls-47{opacity:0.44;}.cls-48{opacity:0.26;}.cls-49{opacity:0.53;}.cls-50{opacity:0.74;}.cls-51{opacity:0.63;}.cls-52{opacity:0.77;}.cls-53{opacity:0.09;}.cls-54{opacity:0.25;}.cls-55{opacity:0.42;}.cls-56{opacity:0.93;}.cls-57{opacity:0.62;}.cls-58{opacity:0.95;}.cls-59{opacity:0.43;}.cls-60{opacity:0.63;}.cls-61{opacity:0.49;}.cls-62{opacity:0.47;}.cls-63{opacity:0.7;}.cls-64{opacity:0.39;}.cls-65{opacity:0.61;}.cls-66{opacity:0.2;}.cls-67{opacity:1;}.cls-68{opacity:0.34;}.cls-69{opacity:0.98;}.cls-70{opacity:0.96;}.cls-71{opacity:0.39;}.cls-72{opacity:0.64;}.cls-73{opacity:0.74;}</style><clipPath id="clip-path" transform="translate(8.65 39.71)"><rect class="cls-1" x="0.25" y="0.12" width="118.77" height="244.35" transform="translate(0.26 -0.12) rotate(0.12)"/></clipPath></defs><g id="Capa_2" data-name="Capa 2"><g id="Layer_1" data-name="Layer 1"><rect class="cls-1" x="0.25" y="0.12" width="118.77" height="244.35" transform="translate(8.91 39.58) rotate(0.12)"/><g class="cls-2"><rect class="cls-3" x="-4.69" y="-3.42" width="125.42" height="253.7" transform="translate(8.91 39.58) rotate(0.12)"/><polygon class="cls-4" points="0.27 125.53 0.27 127.98 43.11 110.94 0.27 125.53"/><polygon class="cls-5" points="0.22 150.86 0.22 153.37 43.98 135.96 0.22 150.86"/><polygon class="cls-6" points="0.26 133 0.25 138.63 98.51 99.53 0.26 133"/><polygon class="cls-7" points="0.16 179.52 0.15 184.86 93.2 147.83 0.16 179.52"/><polygon class="cls-8" points="0.13 192.68 0.12 198.17 95.79 160.1 0.13 192.68"/><polygon class="cls-9" points="0.21 156.93 0.2 160.81 67.91 133.87 0.21 156.93"/><polygon class="cls-10" points="0.36 85.96 0.34 93.35 129.21 42.07 0.36 85.96"/><polygon class="cls-11" points="0.38 73.85 0.37 80.17 110.55 36.33 0.38 73.85"/><polygon class="cls-12" points="0.32 105.11 0.31 108.81 64.76 83.16 0.32 105.11"/><polygon class="cls-13" points="0.26 134.78 0.25 136.21 25.2 126.28 0.26 134.78"/><polygon class="cls-14" points="0.29 118.05 0.28 124.38 110.65 80.46 0.29 118.05"/><polygon class="cls-15" points="0.36 83.75 0.34 92.47 152.37 31.98 0.36 83.75"/><polygon class="cls-16" points="0.11 204.44 0.11 204.86 7.48 201.93 0.11 204.44"/><polygon class="cls-17" points="0.39 67.92 0.39 70.07 37.83 55.17 0.39 67.92"/><polygon class="cls-18" points="0.29 119.72 0.28 121.65 34.04 108.22 0.29 119.72"/><polygon class="cls-19" points="0.27 127.86 0.25 135.91 140.6 80.07 0.27 127.86"/><polygon class="cls-20" points="0 256.46 0 256.98 9.1 253.36 0 256.46"/><polygon class="cls-21" points="0.45 39.47 0.44 45.33 102.49 4.72 0.45 39.47"/><polygon class="cls-22" points="0.12 198.41 0.11 202.26 67.11 175.6 0.12 198.41"/><polygon class="cls-23" points="0.41 62.61 0.4 67.38 83.53 34.3 0.41 62.61"/><polygon class="cls-24" points="0.3 112.8 0.3 114.55 30.69 102.45 0.3 112.8"/><polygon class="cls-25" points="0.08 217.9 0.07 222 71.51 193.57 0.08 217.9"/><polygon class="cls-26" points="0.34 91.85 0.34 94.33 43.61 77.11 0.34 91.85"/><polygon class="cls-27" points="0.12 198.88 0.12 199.37 8.71 195.95 0.12 198.88"/><polygon class="cls-28" points="0.43 52.47 0.41 61.3 154.47 0 0.43 52.47"/><polygon class="cls-29" points="0.15 186.45 0.14 192.16 99.64 152.57 0.15 186.45"/><polygon class="cls-30" points="0.43 49.01 0.42 55.33 110.71 11.44 0.43 49.01"/><polygon class="cls-31" points="0.04 238.5 0.03 241.22 47.45 222.35 0.04 238.5"/><polygon class="cls-32" points="0.2 159.21 0.2 161.24 35.66 147.13 0.2 159.21"/><polygon class="cls-33" points="0.29 116.45 0.28 123.66 126.07 73.61 0.29 116.45"/><polygon class="cls-34" points="0.24 141.19 0.23 145.94 83.07 112.97 0.24 141.19"/><polygon class="cls-35" points="0.4 67.26 0.39 71.19 68.86 43.94 0.4 67.26"/><polygon class="cls-36" points="0.05 234.61 0.04 235.62 17.72 228.59 0.05 234.61"/><polygon class="cls-37" points="0.16 179.5 0.16 179.94 7.89 176.87 0.16 179.5"/><polygon class="cls-38" points="0.23 144.28 0.23 146.8 44.16 129.32 0.23 144.28"/><polygon class="cls-39" points="0.35 88.64 0.35 89.7 18.93 82.31 0.35 88.64"/><polygon class="cls-40" points="0.38 73.47 0.38 74.6 20.18 66.73 0.38 73.47"/><polygon class="cls-41" points="0.28 124.1 0.26 131.78 134.28 78.46 0.28 124.1"/><polygon class="cls-42" points="0.2 162.99 0.19 167.6 80.56 135.62 0.2 162.99"/><polygon class="cls-43" points="0.42 53.66 0.42 56.77 54.82 35.13 0.42 53.66"/><polygon class="cls-44" points="0.27 127.82 0.26 132.94 89.51 97.43 0.27 127.82"/><polygon class="cls-45" points="0.2 159.14 0.2 161.2 36.04 146.94 0.2 159.14"/><polygon class="cls-46" points="0.32 102.04 0.31 109.83 135.99 55.84 0.32 102.04"/><polygon class="cls-47" points="0.02 246.99 0.02 248.1 19.37 240.4 0.02 246.99"/><polygon class="cls-48" points="0.28 123 0.28 124.38 24.38 114.79 0.28 123"/><polygon class="cls-49" points="0.27 129.53 0.26 133.14 63.23 108.08 0.27 129.53"/><polygon class="cls-50" points="0.09 212.94 0.09 216.42 60.72 192.29 0.09 212.94"/><polygon class="cls-51" points="0.18 169.82 0.17 173.28 60.41 149.31 0.18 169.82"/><polygon class="cls-52" points="0.34 92.37 0.34 95.87 61.34 71.59 0.34 92.37"/><polygon class="cls-53" points="0.3 114.3 0.29 118.66 76.3 88.42 0.3 114.3"/><polygon class="cls-54" points="0.35 90.3 0.34 94.75 77.96 63.86 0.35 90.3"/><polygon class="cls-55" points="0.17 174.41 0.17 174.83 7.52 171.91 0.17 174.41"/><polygon class="cls-56" points="0.4 63.25 0.4 65.13 33.19 52.08 0.4 63.25"/><polygon class="cls-57" points="0.27 128.3 0.26 131.08 48.71 111.8 0.27 128.3"/><polygon class="cls-58" points="0.36 86.37 0.35 87.99 28.6 76.75 0.36 86.37"/><polygon class="cls-59" points="0.02 246.4 0.02 249.36 51.67 228.81 0.02 246.4"/><polygon class="cls-60" points="0.44 44.21 0.44 46.82 45.94 28.71 0.44 44.21"/><polygon class="cls-61" points="0.42 56.73 0.41 59.14 42.45 42.42 0.42 56.73"/><polygon class="cls-62" points="0.23 148.43 0.21 155.98 131.79 103.62 0.23 148.43"/><polygon class="cls-63" points="0.35 89.04 0.34 93.67 81.17 61.51 0.35 89.04"/><polygon class="cls-64" points="0.09 213.49 0.09 213.8 5.49 211.65 0.09 213.49"/><polygon class="cls-65" points="0.24 143.47 0.23 148.43 86.66 114.03 0.24 143.47"/><polygon class="cls-66" points="0.33 101.39 0.31 108.44 123.15 59.55 0.33 101.39"/><polygon class="cls-67" points="0.26 131.16 0.26 134.85 64.44 109.31 0.26 131.16"/><polygon class="cls-68" points="0.12 197.89 0.11 202.45 79.59 170.82 0.12 197.89"/><polygon class="cls-69" points="0.15 182.49 0.15 183.84 23.71 174.46 0.15 182.49"/><polygon class="cls-70" points="0.07 223.31 0.07 225.47 37.69 210.5 0.07 223.31"/><polygon class="cls-71" points="0.2 163.45 0.2 163.69 4.48 161.99 0.2 163.45"/><polygon class="cls-72" points="0.29 115.52 0.28 123.54 140.19 67.87 0.29 115.52"/><polygon class="cls-73" points="0.22 153.38 0.21 153.86 8.66 150.5 0.22 153.38"/></g></g></g></svg>