<svg xmlns="http://www.w3.org/2000/svg" xmlns:xlink="http://www.w3.org/1999/xlink" viewBox="0 0 153.79 290.71"><defs><style>.cls-1{fill:#ededed;}.cls-2{clip-path:url(#clip-path);}.cls-3{fill:#7c7e73;}.cls-10,.cls-11,.cls-12,.cls-13,.cls-14,.cls-15,.cls-16,.cls-17,.cls-18,.cls-19,.cls-20,.cls-21,.cls-22,.cls-23,.cls-24,.cls-25,.cls-26,.cls-27,.cls-28,.cls-29,.cls-30,.cls-31,.cls-32,.cls-33,.cls-34,.cls-35,.cls-36,.cls-37,.cls-38,.cls-39,.cls-4,.cls-40,.cls-41,.cls-42,.cls-43,.cls-44,.cls-45,.cls-46,.cls-47,.cls-48,.cls-49,.cls-5,.cls-50,.cls-51,.cls-52,.cls-53,.cls-54,.cls-55,.cls-56,.cls-57,.cls-58,.cls-59,.cls-6,.cls-60,.cls-61,.cls-62,.cls-63,.cls-64,.cls-65,.cls-66,.cls-67,.cls-68,.cls-69,.cls-7,.cls-70,.cls-71,.cls-72,.cls-73,.cls-8,.cls-9{fill:#f2f2f2;}.cls-4{opacity:0.29;}.cls-5{opacity:0.5;}.cls-6{opacity:0.43;}.cls-7{opacity:0.87;}.cls-8{opacity:0.35;}.cls-9{opacity:0.55;}.cls-10{opacity:0.27;}.cls-11{opacity:0.68;}.cls-12{opacity:0.31;}.cls-13{opacity:0.5;}.cls-14{opacity:0.47;}.cls-15{opacity:0.92;}.cls-16{opacity:0.11;}.cls-17{opacity:0.16;}.cls-18{opacity:0.89;}.cls-19{opacity:0.73;}.cls-20{opacity:0.6;}.cls-21{opacity:0.8;}.cls-22{opacity:0.25;}.cls-23{opacity:0.34;}.cls-24{opacity:0.02;}.cls-25{opacity:0.05;}.cls-26{opacity:0.15;}.cls-27{opacity:0.05;}.cls-28{opacity:0.09;}.cls-29{opacity:0.97;}.cls-30{opacity:0.78;}.cls-31{opacity:0.24;}.cls-32{opacity:0.33;}.cls-33{opacity:0.49;}.cls-34{opacity:0.61;}.cls-35{opacity:0.22;}.cls-36{opacity:0.95;}.cls-37{opacity:0.76;}.cls-38{opacity:0.14;}.cls-39{opacity:0.9;}.cls-40{opacity:0.66;}.cls-41{opacity:0.37;}.cls-42{opacity:0.03;}.cls-43{opacity:0.17;}.cls-44{opacity:0.33;}.cls-45{opacity:0.41;}.cls-46{opacity:0.4;}.cls-47{opacity:0.44;}.cls-48{opacity:0.26;}.cls-49{opacity:0.53;}.cls-50{opacity:0.74;}.cls-51{opacity:0.63;}.cls-52{opacity:0.77;}.cls-53{opacity:0.09;}.cls-54{opacity:0.25;}.cls-55{opacity:0.42;}.cls-56{opacity:0.93;}.cls-57{opacity:0.62;}.cls-58{opacity:0.95;}.cls-59{opacity:0.43;}.cls-60{opacity:0.63;}.cls-61{opacity:0.49;}.cls-62{opacity:0.47;}.cls-63{opacity:0.7;}.cls-64{opacity:0.39;}.cls-65{opacity:0.61;}.cls-66{opacity:0.2;}.cls-67{opacity:1;}.cls-68{opacity:0.34;}.cls-69{opacity:0.98;}.cls-70{opacity:0.96;}.cls-71{opacity:0.39;}.cls-72{opacity:0.64;}.cls-73{opacity:0.74;}</style><clipPath id="clip-path" transform="translate(25.43 5.83)"><rect class="cls-1" x="0.44" y="0.21" width="118.77" height="244.35" transform="translate(120.08 244.56) rotate(179.79)"/></clipPath></defs><g id="Capa_2" data-name="Capa 2"><g id="Layer_1" data-name="Layer 1"><rect class="cls-1" x="0.44" y="0.21" width="118.77" height="244.35" transform="translate(145.51 250.39) rotate(179.79)"/><g class="cls-2"><rect class="cls-3" x="-1.28" y="-5.61" width="125.42" height="253.7" transform="translate(148.73 248.09) rotate(179.79)"/><polygon class="cls-4" points="153.48 164.31 153.47 161.85 110.73 179.14 153.48 164.31"/><polygon class="cls-5" points="153.39 138.97 153.38 136.46 109.71 154.13 153.39 138.97"/><polygon class="cls-6" points="153.45 156.84 153.43 151.2 55.4 190.86 153.45 156.84"/><polygon class="cls-7" points="153.28 110.32 153.26 104.98 60.43 142.53 153.28 110.32"/><polygon class="cls-8" points="153.24 97.15 153.22 91.67 57.77 130.28 153.24 97.15"/><polygon class="cls-9" points="153.37 132.91 153.35 129.03 85.8 156.35 153.37 132.91"/><polygon class="cls-10" points="153.62 203.88 153.59 196.49 25.02 248.49 153.62 203.88"/><polygon class="cls-11" points="153.66 215.99 153.64 209.67 43.71 254.13 153.66 215.99"/><polygon class="cls-12" points="153.55 184.73 153.54 181.03 89.24 207.04 153.55 184.73"/><polygon class="cls-13" points="153.44 155.06 153.44 153.62 128.54 163.69 153.44 155.06"/><polygon class="cls-14" points="153.5 171.78 153.48 165.46 43.36 210 153.5 171.78"/><polygon class="cls-15" points="153.63 206.08 153.6 197.36 1.91 258.72 153.63 206.08"/><polygon class="cls-16" points="153.19 85.4 153.19 84.97 145.84 87.95 153.19 85.4"/><polygon class="cls-17" points="153.68 221.91 153.68 219.76 116.32 234.87 153.68 221.91"/><polygon class="cls-18" points="153.5 170.12 153.49 168.18 119.81 181.81 153.5 170.12"/><polygon class="cls-19" points="153.47 161.97 153.44 153.92 13.42 210.56 153.47 161.97"/><polygon class="cls-20" points="153.01 33.38 153.01 32.85 143.93 36.53 153.01 33.38"/><polygon class="cls-21" points="153.79 250.36 153.76 244.51 51.95 285.69 153.79 250.36"/><polygon class="cls-22" points="153.22 91.42 153.2 87.58 86.36 114.62 153.22 91.42"/><polygon class="cls-23" points="153.7 227.22 153.69 222.46 70.74 256.01 153.7 227.22"/><polygon class="cls-24" points="153.52 177.03 153.52 175.29 123.19 187.56 153.52 177.03"/><polygon class="cls-25" points="153.15 71.94 153.13 67.84 81.85 96.67 153.15 71.94"/><polygon class="cls-26" points="153.6 197.99 153.59 195.51 110.42 212.97 153.6 197.99"/><polygon class="cls-27" points="153.22 90.96 153.21 90.47 144.64 93.93 153.22 90.96"/><polygon class="cls-28" points="153.74 237.37 153.71 228.53 0 290.71 153.74 237.37"/><polygon class="cls-29" points="153.26 103.38 153.24 97.68 53.97 137.83 153.26 103.38"/><polygon class="cls-30" points="153.75 240.83 153.73 234.5 43.69 279.02 153.75 240.83"/><polygon class="cls-31" points="153.07 51.34 153.06 48.62 105.75 67.75 153.07 51.34"/><polygon class="cls-32" points="153.36 130.63 153.35 128.59 117.97 142.9 153.36 130.63"/><polygon class="cls-33" points="153.51 173.39 153.48 166.18 27.98 216.94 153.51 173.39"/><polygon class="cls-34" points="153.42 148.65 153.41 143.9 70.75 177.33 153.42 148.65"/><polygon class="cls-35" points="153.69 222.57 153.67 218.65 85.36 246.28 153.69 222.57"/><polygon class="cls-36" points="153.09 55.23 153.08 54.21 135.45 61.35 153.09 55.23"/><polygon class="cls-37" points="153.28 110.33 153.28 109.89 145.57 113.01 153.28 110.33"/><polygon class="cls-38" points="153.41 145.56 153.4 143.04 109.57 160.77 153.41 145.56"/><polygon class="cls-39" points="153.61 201.2 153.61 200.13 135.07 207.63 153.61 201.2"/><polygon class="cls-40" points="153.66 216.37 153.66 215.23 133.91 223.22 153.66 216.37"/><polygon class="cls-41" points="153.48 165.74 153.46 158.05 19.74 212.14 153.48 165.74"/><polygon class="cls-42" points="153.34 126.84 153.33 122.23 73.13 154.67 153.34 126.84"/><polygon class="cls-43" points="153.74 236.18 153.72 233.06 99.44 255.02 153.74 236.18"/><polygon class="cls-44" points="153.47 162.01 153.45 156.9 64.4 192.91 153.47 162.01"/><polygon class="cls-45" points="153.36 130.69 153.35 128.64 117.59 143.1 153.36 130.69"/><polygon class="cls-46" points="153.56 187.79 153.53 180.01 18.16 234.77 153.56 187.79"/><polygon class="cls-47" points="153.04 42.84 153.04 41.73 133.73 49.54 153.04 42.84"/><polygon class="cls-48" points="153.49 166.84 153.48 165.46 129.44 175.18 153.49 166.84"/><polygon class="cls-49" points="153.46 160.31 153.45 156.7 90.62 182.11 153.46 160.31"/><polygon class="cls-50" points="153.16 76.9 153.15 73.42 92.65 97.89 153.16 76.9"/><polygon class="cls-51" points="153.32 120.01 153.31 116.56 93.21 140.87 153.32 120.01"/><polygon class="cls-52" points="153.6 197.47 153.58 193.97 92.72 218.59 153.6 197.47"/><polygon class="cls-53" points="153.52 175.53 153.5 171.17 77.66 201.85 153.52 175.53"/><polygon class="cls-54" points="153.6 199.54 153.59 195.09 76.14 226.41 153.6 199.54"/><polygon class="cls-55" points="153.3 115.42 153.3 115 145.97 117.97 153.3 115.42"/><polygon class="cls-56" points="153.7 226.59 153.69 224.71 120.97 237.94 153.7 226.59"/><polygon class="cls-57" points="153.47 161.54 153.46 158.76 105.12 178.31 153.47 161.54"/><polygon class="cls-58" points="153.62 203.47 153.61 201.84 125.43 213.24 153.62 203.47"/><polygon class="cls-59" points="153.04 43.44 153.03 40.47 101.5 61.32 153.04 43.44"/><polygon class="cls-60" points="153.77 245.63 153.76 243.02 108.36 261.38 153.77 245.63"/><polygon class="cls-61" points="153.72 233.1 153.72 230.69 111.78 247.66 153.72 233.1"/><polygon class="cls-62" points="153.4 141.4 153.37 133.86 22.09 186.96 153.4 141.4"/><polygon class="cls-63" points="153.61 200.8 153.59 196.16 72.95 228.78 153.61 200.8"/><polygon class="cls-64" points="153.16 76.35 153.16 76.04 147.77 78.22 153.16 76.35"/><polygon class="cls-65" points="153.41 146.37 153.4 141.41 67.16 176.29 153.41 146.37"/><polygon class="cls-66" points="153.56 188.44 153.54 181.4 30.97 230.98 153.56 188.44"/><polygon class="cls-67" points="153.46 158.67 153.44 154.99 89.41 180.89 153.46 158.67"/><polygon class="cls-68" points="153.22 91.94 153.2 87.39 73.91 119.46 153.22 91.94"/><polygon class="cls-69" points="153.27 107.35 153.27 106 129.76 115.51 153.27 107.35"/><polygon class="cls-70" points="153.13 66.53 153.12 64.37 115.58 79.55 153.13 66.53"/><polygon class="cls-71" points="153.34 126.39 153.34 126.14 149.07 127.87 153.34 126.39"/><polygon class="cls-72" points="153.51 174.32 153.49 166.3 13.89 222.76 153.51 174.32"/><polygon class="cls-73" points="153.38 136.46 153.38 135.97 144.95 139.38 153.38 136.46"/></g></g></g></svg>