<svg xmlns="http://www.w3.org/2000/svg" xmlns:xlink="http://www.w3.org/1999/xlink" viewBox="0 0 138.54 265.1"><defs><style>.cls-1{fill:#ededed;}.cls-2{clip-path:url(#clip-path);}.cls-3{fill:#f2f2f2;}.cls-10,.cls-11,.cls-12,.cls-13,.cls-14,.cls-15,.cls-16,.cls-17,.cls-18,.cls-19,.cls-20,.cls-21,.cls-22,.cls-23,.cls-24,.cls-25,.cls-26,.cls-27,.cls-28,.cls-29,.cls-30,.cls-31,.cls-32,.cls-33,.cls-34,.cls-35,.cls-36,.cls-37,.cls-38,.cls-39,.cls-4,.cls-40,.cls-41,.cls-42,.cls-43,.cls-44,.cls-45,.cls-46,.cls-47,.cls-48,.cls-49,.cls-5,.cls-50,.cls-51,.cls-52,.cls-53,.cls-54,.cls-55,.cls-56,.cls-57,.cls-58,.cls-59,.cls-6,.cls-60,.cls-61,.cls-62,.cls-63,.cls-64,.cls-65,.cls-66,.cls-67,.cls-68,.cls-69,.cls-7,.cls-70,.cls-71,.cls-72,.cls-73,.cls-74,.cls-75,.cls-76,.cls-77,.cls-78,.cls-79,.cls-8,.cls-80,.cls-81,.cls-82,.cls-83,.cls-84,.cls-85,.cls-86,.cls-87,.cls-88,.cls-89,.cls-9,.cls-90,.cls-91,.cls-92{fill:#7c7e73;}.cls-4{opacity:0.29;}.cls-5{opacity:0.97;}.cls-6{opacity:0.5;}.cls-7{opacity:0.43;}.cls-8{opacity:0.04;}.cls-9{opacity:0.62;}.cls-10{opacity:0.87;}.cls-11{opacity:0.35;}.cls-12{opacity:0.97;}.cls-13{opacity:0.55;}.cls-14{opacity:0.27;}.cls-15{opacity:0.77;}.cls-16{opacity:0.16;}.cls-17{opacity:0.68;}.cls-18{opacity:0.31;}.cls-19{opacity:0.5;}.cls-20{opacity:0.47;}.cls-21{opacity:0.4;}.cls-22{opacity:0.92;}.cls-23{opacity:0.11;}.cls-24{opacity:0.47;}.cls-25{opacity:0.53;}.cls-26{opacity:0.16;}.cls-27{opacity:0.89;}.cls-28{opacity:0.73;}.cls-29{opacity:0.95;}.cls-30{opacity:0.42;}.cls-31{opacity:0.32;}.cls-32{opacity:0.25;}.cls-33{opacity:0.34;}.cls-34{opacity:0.02;}.cls-35{opacity:0.05;}.cls-36{opacity:0.15;}.cls-37{opacity:0.14;}.cls-38{opacity:0.05;}.cls-39{opacity:0.97;}.cls-40{opacity:0.85;}.cls-41{opacity:0.47;}.cls-42{opacity:0.19;}.cls-43{opacity:0.24;}.cls-44{opacity:0.37;}.cls-45{opacity:0.33;}.cls-46{opacity:0.49;}.cls-47{opacity:0.61;}.cls-48{opacity:0.08;}.cls-49{opacity:0.22;}.cls-50{opacity:0.95;}.cls-51{opacity:0.98;}.cls-52{opacity:0.76;}.cls-53{opacity:0.14;}.cls-54{opacity:0.9;}.cls-55{opacity:0.36;}.cls-56{opacity:0.66;}.cls-57{opacity:0.37;}.cls-58{opacity:0.03;}.cls-59{opacity:0.33;}.cls-60{opacity:0.41;}.cls-61{opacity:0.4;}.cls-62{opacity:0.26;}.cls-63{opacity:0.53;}.cls-64{opacity:0.74;}.cls-65{opacity:0.69;}.cls-66{opacity:0.63;}.cls-67{opacity:0.74;}.cls-68{opacity:0.77;}.cls-69{opacity:0.09;}.cls-70{opacity:0.25;}.cls-71{opacity:0.86;}.cls-72{opacity:0.42;}.cls-73{opacity:0.93;}.cls-74{opacity:0.93;}.cls-75{opacity:0.62;}.cls-76{opacity:0.95;}.cls-77{opacity:0.02;}.cls-78{opacity:0.47;}.cls-79{opacity:0.7;}.cls-80{opacity:0.39;}.cls-81{opacity:0.61;}.cls-82{opacity:0.2;}.cls-83{opacity:1;}.cls-84{opacity:0.02;}.cls-85{opacity:0.34;}.cls-86{opacity:0.98;}.cls-87{opacity:0.51;}.cls-88{opacity:0.96;}.cls-89{opacity:0.39;}.cls-90{opacity:0.64;}.cls-91{opacity:0.88;}.cls-92{opacity:0.74;}.cls-93{fill:#fff;}</style><clipPath id="clip-path" transform="translate(10.91 7.55)"><rect class="cls-1" x="1.25" y="1.25" width="118.77" height="244.35"/></clipPath></defs><g id="Capa_2" data-name="Capa 2"><g id="Layer_1" data-name="Layer 1"><rect class="cls-1" x="12.16" y="8.8" width="118.77" height="244.35"/><g class="cls-2"><rect class="cls-3" x="7.22" y="5.26" width="125.42" height="253.7"/><polygon class="cls-4" points="138.54 150.37 0 205.84 0 211.76 138.54 164.25 138.54 150.37"/><polygon class="cls-5" points="138.54 85.41 51.06 120.43 138.54 90.43 138.54 85.41"/><polygon class="cls-6" points="138.54 105.59 0 161.06 0 167.07 138.54 119.56 138.54 105.59"/><polygon class="cls-7" points="138.54 131.59 0 187.05 0 198.58 138.54 151.07 138.54 131.59"/><polygon class="cls-8" points="138.54 57.89 0.77 113.04 138.54 65.8 138.54 57.89"/><polygon class="cls-9" points="138.54 134.32 18.92 182.21 138.54 141.19 138.54 134.32"/><polygon class="cls-10" points="138.54 50.07 0 105.53 0 116.54 138.54 69.03 138.54 50.07"/><polygon class="cls-11" points="138.54 26.59 0 82.06 0 93.32 138.54 45.81 138.54 26.59"/><polygon class="cls-12" points="30.78 0 8.59 8.89 34.5 0 30.78 0"/><polygon class="cls-13" points="138.54 92.48 0 147.94 0 156.38 138.54 108.87 138.54 92.48"/><polygon class="cls-14" points="138.54 211.46 4.54 265.1 47.95 265.1 138.54 234.03 138.54 211.46"/><polygon class="cls-15" points="138.54 134.38 30.96 177.44 138.54 140.55 138.54 134.38"/><polygon class="cls-16" points="138.54 205.25 3.77 259.2 138.54 212.99 138.54 205.25"/><polygon class="cls-17" points="138.54 234.7 62.6 265.1 110.21 265.1 138.54 255.39 138.54 234.7"/><polygon class="cls-18" points="138.54 184.2 0 239.66 0 247.77 138.54 200.26 138.54 184.2"/><polygon class="cls-19" points="138.54 135.86 0 191.32 0 195.44 138.54 147.93 138.54 135.86"/><polygon class="cls-20" points="138.54 156.73 0 212.19 0 224.94 138.54 177.44 138.54 156.73"/><polygon class="cls-21" points="138.54 106.97 0 162.44 0 163.94 138.54 116.43 138.54 106.97"/><polygon class="cls-22" points="138.54 213 8.4 265.1 59.28 265.1 138.54 237.92 138.54 213"/><polygon class="cls-23" points="138.54 14.79 0 70.26 0 72.59 138.54 25.08 138.54 14.79"/><polygon class="cls-24" points="138.54 2.97 2.25 57.53 138.54 10.79 138.54 2.97"/><polygon class="cls-25" points="138.54 140.26 61.4 171.15 138.54 144.69 138.54 140.26"/><polygon class="cls-26" points="138.54 252.5 107.08 265.1 138.54 265.1 138.54 252.5"/><polygon class="cls-27" points="138.54 161.54 0 217 0 222.01 138.54 174.5 138.54 161.54"/><polygon class="cls-28" points="138.54 136.39 0 191.85 0 207.64 138.54 160.13 138.54 136.39"/><polygon class="cls-29" points="138.54 65.61 78.41 89.68 138.54 69.06 138.54 65.61"/><polygon class="cls-30" points="138.54 181.25 43.98 219.11 138.54 186.68 138.54 181.25"/><polygon class="cls-31" points="138.54 84.91 2.97 139.19 138.54 92.69 138.54 84.91"/><polygon class="cls-32" points="138.54 19.38 0 74.84 0 83.21 138.54 35.7 138.54 19.38"/><polygon class="cls-33" points="138.54 257.25 118.94 265.1 138.54 265.1 138.54 257.25"/><polygon class="cls-34" points="138.54 174.07 0 229.53 0 234.2 138.54 186.69 138.54 174.07"/><polygon class="cls-35" points="100 0 0 40.03 0 48.85 138.54 1.34 138.54 0 100 0"/><polygon class="cls-36" points="138.54 209.73 0.22 265.1 17.66 265.1 138.54 223.65 138.54 209.73"/><polygon class="cls-37" points="138.54 25.05 35.06 66.48 138.54 30.99 138.54 25.05"/><polygon class="cls-38" points="138.54 24.48 0 79.94 0 82.4 138.54 34.89 138.54 24.48"/><polygon class="cls-39" points="138.54 37.19 0 92.66 0 104.31 138.54 56.8 138.54 37.19"/><polygon class="cls-40" points="52.42 0 0 20.99 0 22.41 65.34 0 52.42 0"/><polygon class="cls-41" points="138.54 148.28 0.4 203.58 138.54 156.21 138.54 148.28"/><polygon class="cls-42" points="138.54 75 0 130.46 0 131.02 138.54 83.51 138.54 75"/><polygon class="cls-43" points="15.32 0 0 6.13 0 12.52 36.51 0 15.32 0"/><polygon class="cls-44" points="138.54 14.29 0 69.75 0 70.55 138.54 23.04 138.54 14.29"/><polygon class="cls-45" points="138.54 91.72 0 147.18 0 152.35 138.54 104.85 138.54 91.72"/><polygon class="cls-46" points="138.54 158 0 213.46 0 227.77 138.54 180.26 138.54 158"/><polygon class="cls-47" points="138.54 118.71 0 174.17 0 184.14 138.54 136.63 138.54 118.71"/><polygon class="cls-48" points="138.54 116.16 16.96 164.83 138.54 123.14 138.54 116.16"/><polygon class="cls-49" points="138.54 250.54 102.17 265.1 138.54 265.1 138.54 250.54"/><polygon class="cls-50" points="39.98 0 0 16 0 19.38 56.52 0 39.98 0"/><polygon class="cls-51" points="111.35 0 21.79 35.85 126.34 0 111.35 0"/><polygon class="cls-52" points="138.54 58.74 0 114.2 0 116.57 138.54 69.06 138.54 58.74"/><polygon class="cls-53" points="138.54 117.19 0 172.65 0 178.69 138.54 131.18 138.54 117.19"/><polygon class="cls-54" points="138.54 217.89 20.61 265.1 34.17 265.1 138.54 229.31 138.54 217.89"/><polygon class="cls-55" points="70.68 0 63.87 2.73 71.82 0 70.68 0"/><polygon class="cls-56" points="138.54 244.51 87.11 265.1 112.17 265.1 138.54 256.06 138.54 244.51"/><polygon class="cls-57" points="138.54 143.67 0 199.13 0 214.28 138.54 166.77 138.54 143.67"/><polygon class="cls-58" points="138.54 80.51 0 135.97 0 145.69 138.54 98.18 138.54 80.51"/><polygon class="cls-59" points="138.54 141.63 0 197.09 0 207.71 138.54 160.2 138.54 141.63"/><polygon class="cls-60" points="138.54 91.8 0 147.26 0 152.48 138.54 104.97 138.54 91.8"/><polygon class="cls-61" points="138.54 182.4 0 237.86 0 253.17 138.54 205.66 138.54 182.4"/><polygon class="cls-62" points="138.54 156.73 0 212.19 0 216.22 138.54 168.71 138.54 156.73"/><polygon class="cls-63" points="138.54 141.28 0 196.75 0 204.71 138.54 157.2 138.54 141.28"/><polygon class="cls-64" points="124.58 0 0 49.87 0 57.6 138.54 10.09 138.54 0 124.58 0"/><polygon class="cls-65" points="138.54 23.83 31.89 66.53 138.54 29.96 138.54 23.83"/><polygon class="cls-66" points="138.54 70.49 0 125.95 0 133.64 138.54 86.13 138.54 70.49"/><polygon class="cls-67" points="68.44 0 18.21 20.11 76.84 0 68.44 0"/><polygon class="cls-68" points="138.54 207.01 0 262.47 0 265.1 14.97 265.1 138.54 222.73 138.54 207.01"/><polygon class="cls-69" points="138.54 166.81 0 222.27 0 231.55 138.54 184.04 138.54 166.81"/><polygon class="cls-70" points="138.54 208.99 0 264.45 0 265.1 25.63 265.1 138.54 226.38 138.54 208.99"/><polygon class="cls-71" points="138.54 136.21 0 191.68 0 192.37 138.54 144.86 138.54 136.21"/><polygon class="cls-72" points="138.54 67.75 0 123.21 0 125.55 138.54 78.04 138.54 67.75"/><polygon class="cls-73" points="138.54 261.23 128.86 265.1 138.54 265.1 138.54 261.23"/><polygon class="cls-74" points="138.54 80.98 78.59 104.98 138.54 84.42 138.54 80.98"/><polygon class="cls-75" points="138.54 144.92 0 200.38 0 206.87 138.54 159.36 138.54 144.92"/><polygon class="cls-76" points="138.54 220.91 28.14 265.1 45.82 265.1 138.54 233.31 138.54 220.91"/><polygon class="cls-77" points="14.06 0 0.06 5.61 16.4 0 14.06 0"/><polygon class="cls-78" points="138.54 101 0 156.46 0 171.36 138.54 123.85 138.54 101"/><polygon class="cls-79" points="138.54 210.88 3.1 265.1 32.09 265.1 138.54 228.6 138.54 210.88"/><polygon class="cls-80" points="136.12 0 0 54.49 0 56.63 138.54 9.12 138.54 0 136.12 0"/><polygon class="cls-81" points="138.54 114.32 0 169.78 0 180.11 138.54 132.6 138.54 114.32"/><polygon class="cls-82" points="138.54 184.85 0 240.31 0 254.32 138.54 206.81 138.54 184.85"/><polygon class="cls-83" points="138.54 138.27 0 193.73 0 201.81 138.54 154.31 138.54 138.27"/><polygon class="cls-84" points="138.54 149.19 25.53 194.43 138.54 155.68 138.54 149.19"/><polygon class="cls-85" points="138.54 19.05 0 74.51 0 84.14 138.54 36.63 138.54 19.05"/><polygon class="cls-86" points="138.54 51.87 0 107.33 0 111.31 138.54 63.8 138.54 51.87"/><polygon class="cls-87" points="138.54 42.47 0 97.93 0 98.72 138.54 51.22 138.54 42.47"/><polygon class="cls-88" points="84.71 0 0 33.91 0 39.31 114.62 0 84.71 0"/><polygon class="cls-89" points="138.54 87.39 0 142.85 0 144.88 138.54 97.37 138.54 87.39"/><polygon class="cls-90" points="138.54 158.21 0 213.67 0 229.41 138.54 181.91 138.54 158.21"/><polygon class="cls-91" points="41.49 0 38.15 1.34 42.05 0 41.49 0"/><polygon class="cls-92" points="138.54 104.73 0 160.19 0 162.64 138.54 115.13 138.54 104.73"/></g><path class="cls-93" d="M121.27,246.85H0V0H121.27ZM2.5,244.35H118.77V2.5H2.5Z" transform="translate(10.91 7.55)"/></g></g></svg>