<?xml version="1.0" encoding="utf-8"?>
<!-- Generator: Adobe Illustrator 24.1.2, SVG Export Plug-In . SVG Version: 6.00 Build 0)  -->
<svg version="1.1" id="Capa_1" xmlns="http://www.w3.org/2000/svg" xmlns:xlink="http://www.w3.org/1999/xlink" x="0px" y="0px"
	 viewBox="0 0 116.2 242.8" style="enable-background:new 0 0 116.2 242.8;" xml:space="preserve">
<style type="text/css">
	.st0{fill:#CDE501;}
	.st1{opacity:0.7;}
	.st2{opacity:0.29;fill:#F2F2F2;enable-background:new    ;}
	.st3{opacity:0.5;fill:#F2F2F2;enable-background:new    ;}
	.st4{opacity:0.43;fill:#F2F2F2;enable-background:new    ;}
	.st5{opacity:0.87;fill:#F2F2F2;enable-background:new    ;}
	.st6{opacity:0.35;fill:#F2F2F2;enable-background:new    ;}
	.st7{opacity:0.55;fill:#F2F2F2;enable-background:new    ;}
	.st8{opacity:0.27;fill:#F2F2F2;enable-background:new    ;}
	.st9{opacity:0.68;fill:#F2F2F2;enable-background:new    ;}
	.st10{opacity:0.31;fill:#F2F2F2;enable-background:new    ;}
	.st11{opacity:0.47;fill:#F2F2F2;enable-background:new    ;}
	.st12{opacity:0.92;fill:#F2F2F2;enable-background:new    ;}
	.st13{opacity:0.11;fill:#F2F2F2;enable-background:new    ;}
	.st14{opacity:0.16;fill:#F2F2F2;enable-background:new    ;}
	.st15{opacity:0.89;fill:#F2F2F2;enable-background:new    ;}
	.st16{opacity:0.73;fill:#F2F2F2;enable-background:new    ;}
	.st17{opacity:0.6;fill:#F2F2F2;enable-background:new    ;}
	.st18{opacity:0.8;fill:#F2F2F2;enable-background:new    ;}
	.st19{opacity:0.25;fill:#F2F2F2;enable-background:new    ;}
	.st20{opacity:0.34;fill:#F2F2F2;enable-background:new    ;}
	.st21{opacity:2.000000e-02;fill:#F2F2F2;enable-background:new    ;}
	.st22{opacity:5.000000e-02;fill:#F2F2F2;enable-background:new    ;}
	.st23{opacity:0.15;fill:#F2F2F2;enable-background:new    ;}
	.st24{opacity:9.000000e-02;fill:#F2F2F2;enable-background:new    ;}
	.st25{opacity:0.97;fill:#F2F2F2;enable-background:new    ;}
	.st26{opacity:0.78;fill:#F2F2F2;enable-background:new    ;}
	.st27{opacity:0.24;fill:#F2F2F2;enable-background:new    ;}
	.st28{opacity:0.33;fill:#F2F2F2;enable-background:new    ;}
	.st29{opacity:0.49;fill:#F2F2F2;enable-background:new    ;}
	.st30{opacity:0.61;fill:#F2F2F2;enable-background:new    ;}
	.st31{opacity:0.22;fill:#F2F2F2;enable-background:new    ;}
	.st32{opacity:0.95;fill:#F2F2F2;enable-background:new    ;}
	.st33{opacity:0.76;fill:#F2F2F2;enable-background:new    ;}
	.st34{opacity:0.14;fill:#F2F2F2;enable-background:new    ;}
	.st35{opacity:0.9;fill:#F2F2F2;enable-background:new    ;}
	.st36{opacity:0.66;fill:#F2F2F2;enable-background:new    ;}
	.st37{opacity:0.37;fill:#F2F2F2;enable-background:new    ;}
	.st38{opacity:3.000000e-02;fill:#F2F2F2;enable-background:new    ;}
	.st39{opacity:0.17;fill:#F2F2F2;enable-background:new    ;}
	.st40{opacity:0.41;fill:#F2F2F2;enable-background:new    ;}
	.st41{opacity:0.4;fill:#F2F2F2;enable-background:new    ;}
	.st42{opacity:0.44;fill:#F2F2F2;enable-background:new    ;}
	.st43{opacity:0.26;fill:#F2F2F2;enable-background:new    ;}
	.st44{opacity:0.53;fill:#F2F2F2;enable-background:new    ;}
	.st45{opacity:0.74;fill:#F2F2F2;enable-background:new    ;}
	.st46{opacity:0.63;fill:#F2F2F2;enable-background:new    ;}
	.st47{opacity:0.77;fill:#F2F2F2;enable-background:new    ;}
	.st48{opacity:0.42;fill:#F2F2F2;enable-background:new    ;}
	.st49{opacity:0.93;fill:#F2F2F2;enable-background:new    ;}
	.st50{opacity:0.62;fill:#F2F2F2;enable-background:new    ;}
	.st51{opacity:0.7;fill:#F2F2F2;enable-background:new    ;}
	.st52{opacity:0.39;fill:#F2F2F2;enable-background:new    ;}
	.st53{opacity:0.2;fill:#F2F2F2;enable-background:new    ;}
	.st54{fill:#F2F2F2;}
	.st55{opacity:0.98;fill:#F2F2F2;enable-background:new    ;}
	.st56{opacity:0.96;fill:#F2F2F2;enable-background:new    ;}
	.st57{opacity:0.64;fill:#F2F2F2;enable-background:new    ;}
</style>
<g id="Capa_2_1_">
	<g id="Layer_1">
		
			<rect x="-63.6" y="62.5" transform="matrix(5.933749e-03 -1 1 5.933749e-03 -63.5802 179.8392)" class="st0" width="244.5" height="118.8"/>
		<g class="st1">
			<polygon class="st2" points="0,118.9 0,121.2 32.4,105.1 			"/>
			<polygon class="st3" points="-0.1,143 -0.1,145.4 33,128.9 			"/>
			<polygon class="st4" points="0,126 -0.1,131.3 74.3,94.4 			"/>
			<polygon class="st5" points="-0.3,170.2 -0.3,175.3 70.1,140.3 			"/>
			<polygon class="st6" points="-0.4,182.7 -0.4,187.9 72.1,152 			"/>
			<polygon class="st7" points="-0.2,148.7 -0.2,152.4 51.1,127 			"/>
			<polygon class="st8" points="0.2,81.3 0.2,88.3 97.8,39.9 			"/>
			<polygon class="st9" points="0.3,69.8 0.3,75.8 83.7,34.4 			"/>
			<polygon class="st10" points="0.1,99.5 0.1,103 48.9,78.8 			"/>
			<polygon class="st3" points="0,127.7 0,129 18.8,119.7 			"/>
			<polygon class="st11" points="0,111.8 0,117.8 83.6,76.4 			"/>
			<polygon class="st12" points="0.2,79.2 0.2,87.5 115.3,30.4 			"/>
			<polygon class="st13" points="-0.4,193.9 -0.4,194.3 5.2,191.5 			"/>
			<polygon class="st14" points="0.3,64.1 0.3,66.2 28.7,52.1 			"/>
			<polygon class="st15" points="0,113.4 0,115.2 25.6,102.5 			"/>
			<polygon class="st16" points="0,121.1 0,128.8 106.2,76.1 			"/>
			<polygon class="st17" points="-0.7,243.3 -0.7,243.8 6.2,240.4 			"/>
			<polygon class="st18" points="0.5,37.1 0.5,42.7 77.7,4.3 			"/>
			<polygon class="st19" points="-0.4,188.2 -0.4,191.8 50.3,166.7 			"/>
			<polygon class="st20" points="0.4,59.1 0.3,63.6 63.3,32.4 			"/>
			<polygon class="st21" points="0.1,106.8 0.1,108.5 23.1,97 			"/>
			<polygon class="st22" points="-0.5,206.7 -0.5,210.6 53.6,183.7 			"/>
			<polygon class="st23" points="0.2,86.9 0.2,89.2 33,73 			"/>
			<polygon class="st22" points="-0.4,188.6 -0.4,189.1 6.1,185.8 			"/>
			<polygon class="st24" points="0.4,49.5 0.4,57.9 117,0 			"/>
			<polygon class="st25" points="-0.3,176.8 -0.4,182.2 75,144.9 			"/>
			<polygon class="st26" points="0.4,46.2 0.4,52.2 83.9,10.8 			"/>
			<polygon class="st27" points="-0.6,226.3 -0.6,228.8 35.3,211 			"/>
			<polygon class="st28" points="-0.2,150.9 -0.2,152.8 26.7,139.5 			"/>
			<polygon class="st29" points="0.1,110.3 0,117.1 95.3,69.9 			"/>
			<polygon class="st30" points="-0.1,133.8 -0.1,138.3 62.6,107.2 			"/>
			<polygon class="st31" points="0.3,63.5 0.3,67.2 52.2,41.5 			"/>
			<polygon class="st32" points="-0.6,222.6 -0.6,223.5 12.8,216.9 			"/>
			<polygon class="st33" points="-0.3,170.2 -0.3,170.6 5.6,167.7 			"/>
			<polygon class="st34" points="-0.1,136.7 -0.1,139.1 33.2,122.6 			"/>
			<polygon class="st35" points="0.2,83.8 0.2,84.8 14.3,77.9 			"/>
			<polygon class="st36" points="0.3,69.4 0.3,70.5 15.3,63.1 			"/>
			<polygon class="st37" points="0,117.5 0,124.8 101.5,74.5 			"/>
			<polygon class="st38" points="-0.2,154.5 -0.2,158.9 60.6,128.7 			"/>
			<polygon class="st39" points="0.4,50.6 0.4,53.5 41.6,33.1 			"/>
			<polygon class="st28" points="0,121.1 0,125.9 67.6,92.4 			"/>
			<polygon class="st40" points="-0.2,150.8 -0.2,152.8 27,139.3 			"/>
			<polygon class="st41" points="0.1,96.6 0.1,104 102.8,53 			"/>
			<polygon class="st42" points="-0.7,234.3 -0.7,235.4 14,228.1 			"/>
			<polygon class="st43" points="0,116.5 0,117.8 18.3,108.8 			"/>
			<polygon class="st44" points="0,122.7 0,126.1 47.7,102.5 			"/>
			<polygon class="st45" points="-0.5,202 -0.5,205.3 45.4,182.5 			"/>
			<polygon class="st46" points="-0.2,161 -0.3,164.3 45.4,141.7 			"/>
			<polygon class="st47" points="0.2,87.4 0.2,90.7 46.4,67.8 			"/>
			<polygon class="st24" points="0.1,108.2 0,112.4 57.6,83.8 			"/>
			<polygon class="st19" points="0.2,85.4 0.2,89.6 59,60.5 			"/>
			<polygon class="st48" points="-0.3,165.3 -0.3,165.8 5.3,163 			"/>
			<polygon class="st49" points="0.4,59.7 0.3,61.5 25.2,49.2 			"/>
			<polygon class="st50" points="0,121.5 0,124.2 36.7,106 			"/>
			<polygon class="st32" points="0.2,81.7 0.2,83.2 21.6,72.6 			"/>
			<polygon class="st4" points="-0.7,233.8 -0.7,236.6 38.4,217.2 			"/>
			<polygon class="st46" points="0.5,41.6 0.5,44.1 34.9,27 			"/>
			<polygon class="st29" points="0.4,53.5 0.4,55.8 32.2,40 			"/>
			<polygon class="st11" points="-0.1,140.7 -0.2,147.8 99.5,98.4 			"/>
			<polygon class="st51" points="0.2,84.2 0.2,88.6 61.4,58.3 			"/>
			<polygon class="st52" points="-0.5,202.5 -0.5,202.8 3.6,200.8 			"/>
			<polygon class="st30" points="-0.1,135.9 -0.1,140.7 65.3,108.2 			"/>
			<polygon class="st53" points="0.1,96 0.1,102.6 93.1,56.5 			"/>
			<polygon class="st54" points="0,124.3 0,127.7 48.6,103.6 			"/>
			<polygon class="st20" points="-0.4,187.7 -0.4,192 59.8,162.2 			"/>
			<polygon class="st55" points="-0.3,173 -0.3,174.3 17.5,165.5 			"/>
			<polygon class="st56" points="-0.5,211.8 -0.5,213.9 27.9,199.7 			"/>
			<polygon class="st52" points="-0.2,154.9 -0.2,155.2 3,153.6 			"/>
			<polygon class="st57" points="0.1,109.4 0,117 106,64.5 			"/>
			<polygon class="st45" points="-0.1,145.4 -0.1,145.8 6.2,142.7 			"/>
		</g>
	</g>
</g>
</svg>
