<?xml version="1.0" encoding="utf-8"?>
<!-- Generator: Adobe Illustrator 24.1.2, SVG Export Plug-In . SVG Version: 6.00 Build 0)  -->
<svg version="1.1" id="Capa_1" xmlns="http://www.w3.org/2000/svg" xmlns:xlink="http://www.w3.org/1999/xlink" x="0px" y="0px"
	 viewBox="0 0 117.8 241.2" style="enable-background:new 0 0 117.8 241.2;" xml:space="preserve">
<style type="text/css">
	.st0{fill:#F2F2F2;}
	.st1{opacity:0.3;}
	.st2{opacity:0.29;fill:#27292D;enable-background:new    ;}
	.st3{opacity:0.5;fill:#27292D;enable-background:new    ;}
	.st4{opacity:0.43;fill:#27292D;enable-background:new    ;}
	.st5{opacity:0.87;fill:#27292D;enable-background:new    ;}
	.st6{opacity:0.35;fill:#27292D;enable-background:new    ;}
	.st7{opacity:0.55;fill:#27292D;enable-background:new    ;}
	.st8{opacity:0.27;fill:#27292D;enable-background:new    ;}
	.st9{opacity:0.68;fill:#27292D;enable-background:new    ;}
	.st10{opacity:0.31;fill:#27292D;enable-background:new    ;}
	.st11{opacity:0.47;fill:#27292D;enable-background:new    ;}
	.st12{opacity:0.92;fill:#27292D;enable-background:new    ;}
	.st13{opacity:0.11;fill:#27292D;enable-background:new    ;}
	.st14{opacity:0.16;fill:#27292D;enable-background:new    ;}
	.st15{opacity:0.89;fill:#27292D;enable-background:new    ;}
	.st16{opacity:0.73;fill:#27292D;enable-background:new    ;}
	.st17{opacity:0.6;fill:#27292D;enable-background:new    ;}
	.st18{opacity:0.8;fill:#27292D;enable-background:new    ;}
	.st19{opacity:0.25;fill:#27292D;enable-background:new    ;}
	.st20{opacity:0.34;fill:#27292D;enable-background:new    ;}
	.st21{opacity:2.000000e-02;fill:#27292D;enable-background:new    ;}
	.st22{opacity:5.000000e-02;fill:#27292D;enable-background:new    ;}
	.st23{opacity:0.15;fill:#27292D;enable-background:new    ;}
	.st24{opacity:9.000000e-02;fill:#27292D;enable-background:new    ;}
	.st25{opacity:0.97;fill:#27292D;enable-background:new    ;}
	.st26{opacity:0.78;fill:#27292D;enable-background:new    ;}
	.st27{opacity:0.24;fill:#27292D;enable-background:new    ;}
	.st28{opacity:0.33;fill:#27292D;enable-background:new    ;}
	.st29{opacity:0.49;fill:#27292D;enable-background:new    ;}
	.st30{opacity:0.61;fill:#27292D;enable-background:new    ;}
	.st31{opacity:0.22;fill:#27292D;enable-background:new    ;}
	.st32{opacity:0.95;fill:#27292D;enable-background:new    ;}
	.st33{opacity:0.76;fill:#27292D;enable-background:new    ;}
	.st34{opacity:0.14;fill:#27292D;enable-background:new    ;}
	.st35{opacity:0.9;fill:#27292D;enable-background:new    ;}
	.st36{opacity:0.66;fill:#27292D;enable-background:new    ;}
	.st37{opacity:0.37;fill:#27292D;enable-background:new    ;}
	.st38{opacity:3.000000e-02;fill:#27292D;enable-background:new    ;}
	.st39{opacity:0.17;fill:#27292D;enable-background:new    ;}
	.st40{opacity:0.41;fill:#27292D;enable-background:new    ;}
	.st41{opacity:0.4;fill:#27292D;enable-background:new    ;}
	.st42{opacity:0.44;fill:#27292D;enable-background:new    ;}
	.st43{opacity:0.26;fill:#27292D;enable-background:new    ;}
	.st44{opacity:0.53;fill:#27292D;enable-background:new    ;}
	.st45{opacity:0.74;fill:#27292D;enable-background:new    ;}
	.st46{opacity:0.63;fill:#27292D;enable-background:new    ;}
	.st47{opacity:0.77;fill:#27292D;enable-background:new    ;}
	.st48{opacity:0.42;fill:#27292D;enable-background:new    ;}
	.st49{opacity:0.93;fill:#27292D;enable-background:new    ;}
	.st50{opacity:0.62;fill:#27292D;enable-background:new    ;}
	.st51{opacity:0.7;fill:#27292D;enable-background:new    ;}
	.st52{opacity:0.39;fill:#27292D;enable-background:new    ;}
	.st53{opacity:0.2;fill:#27292D;enable-background:new    ;}
	.st54{fill:#27292D;}
	.st55{opacity:0.98;fill:#27292D;enable-background:new    ;}
	.st56{opacity:0.96;fill:#27292D;enable-background:new    ;}
	.st57{opacity:0.64;fill:#27292D;enable-background:new    ;}
</style>
<g id="Capa_2_1_">
	<g id="Layer_1">
		
			<rect x="-63.2" y="59.5" transform="matrix(5.934085e-03 -1 1 5.934085e-03 -61.5355 178.595)" class="st0" width="244.5" height="121.5"/>
		<g class="st1">
			<polygon class="st2" points="-1.7,117.2 -1.7,119.6 31.4,103.5 			"/>
			<polygon class="st3" points="-1.8,141.3 -1.8,143.7 32,127.3 			"/>
			<polygon class="st4" points="-1.7,124.3 -1.7,129.7 74.2,92.8 			"/>
			<polygon class="st5" points="-2,168.5 -2,173.6 69.9,138.7 			"/>
			<polygon class="st6" points="-2,181.1 -2.1,186.3 71.9,150.3 			"/>
			<polygon class="st7" points="-1.9,147.1 -1.9,150.8 50.5,125.3 			"/>
			<polygon class="st8" points="-1.4,79.6 -1.5,86.6 98.2,38.3 			"/>
			<polygon class="st9" points="-1.4,68.1 -1.4,74.1 83.8,32.7 			"/>
			<polygon class="st10" points="-1.5,97.8 -1.6,101.3 48.3,77.1 			"/>
			<polygon class="st3" points="-1.7,126 -1.7,127.4 17.6,118 			"/>
			<polygon class="st11" points="-1.6,110.1 -1.7,116.1 83.7,74.7 			"/>
			<polygon class="st12" points="-1.4,77.5 -1.5,85.8 116.1,28.7 			"/>
			<polygon class="st13" points="-2.1,192.2 -2.1,192.6 3.6,189.9 			"/>
			<polygon class="st14" points="-1.3,62.5 -1.3,64.5 27.6,50.5 			"/>
			<polygon class="st15" points="-1.6,111.7 -1.6,113.5 24.5,100.9 			"/>
			<polygon class="st16" points="-1.7,119.5 -1.7,127.1 106.8,74.4 			"/>
			<polygon class="st17" points="-2.4,241.7 -2.4,242.2 4.6,238.8 			"/>
			<polygon class="st18" points="-1.2,35.4 -1.2,41 77.7,2.7 			"/>
			<polygon class="st19" points="-2.1,186.5 -2.1,190.2 49.7,165 			"/>
			<polygon class="st20" points="-1.3,57.4 -1.3,62 62.9,30.7 			"/>
			<polygon class="st21" points="-1.6,105.1 -1.6,106.8 21.9,95.4 			"/>
			<polygon class="st22" points="-2.2,205 -2.2,208.9 53,182.1 			"/>
			<polygon class="st23" points="-1.5,85.2 -1.5,87.6 32,71.3 			"/>
			<polygon class="st22" points="-2.1,186.9 -2.1,187.4 4.6,184.2 			"/>
			<polygon class="st24" points="-1.3,47.8 -1.3,56.2 117.8,-1.7 			"/>
			<polygon class="st25" points="-2,175.1 -2,180.6 74.9,143.2 			"/>
			<polygon class="st26" points="-1.2,44.5 -1.3,50.5 84,9.1 			"/>
			<polygon class="st27" points="-2.3,224.6 -2.3,227.2 34.3,209.4 			"/>
			<polygon class="st28" points="-1.9,149.2 -1.9,151.2 25.5,137.9 			"/>
			<polygon class="st29" points="-1.6,108.6 -1.7,115.5 95.6,68.2 			"/>
			<polygon class="st30" points="-1.8,132.1 -1.8,136.6 62.3,105.5 			"/>
			<polygon class="st31" points="-1.3,61.9 -1.4,65.6 51.6,39.9 			"/>
			<polygon class="st32" points="-2.3,220.9 -2.3,221.9 11.4,215.2 			"/>
			<polygon class="st33" points="-2,168.5 -2,168.9 4,166 			"/>
			<polygon class="st34" points="-1.8,135.1 -1.8,137.4 32.2,121 			"/>
			<polygon class="st35" points="-1.5,82.2 -1.5,83.2 12.9,76.2 			"/>
			<polygon class="st36" points="-1.4,67.8 -1.4,68.8 13.9,61.4 			"/>
			<polygon class="st37" points="-1.7,115.9 -1.7,123.2 101.9,72.8 			"/>
			<polygon class="st38" points="-1.9,152.8 -1.9,157.2 60.2,127 			"/>
			<polygon class="st39" points="-1.3,48.9 -1.3,51.9 40.8,31.5 			"/>
			<polygon class="st28" points="-1.7,119.4 -1.7,124.3 67.3,90.8 			"/>
			<polygon class="st40" points="-1.9,149.2 -1.9,151.1 25.8,137.7 			"/>
			<polygon class="st41" points="-1.5,94.9 -1.6,102.3 103.3,51.4 			"/>
			<polygon class="st42" points="-2.4,232.7 -2.4,233.7 12.6,226.5 			"/>
			<polygon class="st43" points="-1.6,114.8 -1.7,116.1 17,107.1 			"/>
			<polygon class="st44" points="-1.7,121 -1.7,124.5 47,100.8 			"/>
			<polygon class="st45" points="-2.2,200.3 -2.2,203.6 44.7,180.8 			"/>
			<polygon class="st46" points="-1.9,159.3 -1.9,162.6 44.6,140 			"/>
			<polygon class="st47" points="-1.5,85.7 -1.5,89 45.7,66.1 			"/>
			<polygon class="st24" points="-1.6,106.6 -1.6,110.7 57.1,82.2 			"/>
			<polygon class="st19" points="-1.5,83.8 -1.5,88 58.5,58.8 			"/>
			<polygon class="st48" points="-2,163.7 -2,164.1 3.7,161.3 			"/>
			<polygon class="st49" points="-1.3,58 -1.3,59.8 24,47.5 			"/>
			<polygon class="st50" points="-1.7,119.9 -1.7,122.5 35.8,104.3 			"/>
			<polygon class="st32" points="-1.4,80 -1.5,81.6 20.4,71 			"/>
			<polygon class="st4" points="-2.3,232.1 -2.4,234.9 37.6,215.5 			"/>
			<polygon class="st46" points="-1.2,39.9 -1.2,42.4 34,25.3 			"/>
			<polygon class="st29" points="-1.3,51.8 -1.3,54.1 31.2,38.4 			"/>
			<polygon class="st11" points="-1.8,139 -1.8,146.2 99.9,96.8 			"/>
			<polygon class="st51" points="-1.5,82.6 -1.5,87 61,56.6 			"/>
			<polygon class="st52" points="-2.2,200.8 -2.2,201.1 2,199.1 			"/>
			<polygon class="st30" points="-1.8,134.3 -1.8,139 65,106.5 			"/>
			<polygon class="st53" points="-1.5,94.3 -1.6,101 93.4,54.9 			"/>
			<polygon class="st54" points="-1.7,122.6 -1.7,126.1 47.9,102 			"/>
			<polygon class="st20" points="-2.1,186 -2.1,190.3 59.3,160.5 			"/>
			<polygon class="st55" points="-2,171.4 -2,172.7 16.2,163.8 			"/>
			<polygon class="st56" points="-2.2,210.2 -2.2,212.2 26.9,198.1 			"/>
			<polygon class="st52" points="-1.9,153.3 -1.9,153.5 1.4,151.9 			"/>
			<polygon class="st57" points="-1.6,107.7 -1.7,115.3 106.5,62.8 			"/>
			<polygon class="st45" points="-1.8,143.7 -1.8,144.2 4.7,141 			"/>
		</g>
	</g>
</g>
</svg>
