<svg xmlns="http://www.w3.org/2000/svg" xmlns:xlink="http://www.w3.org/1999/xlink" viewBox="0 0 1385.24 2644.66"><defs><style>.cls-1{fill:none;}.cls-2{isolation:isolate;}.cls-3{fill:#eaf205;}.cls-4{clip-path:url(#clip-path);}.cls-5{fill:#3d3d3d;}.cls-5,.cls-6{mix-blend-mode:overlay;}.cls-6{fill:#b3b3b3;}</style><clipPath id="clip-path" transform="translate(153.82 368.07)"><polygon class="cls-1" points="0 2.75 1.65 1824 1096 1821.25 1094.35 0 0 2.75"/></clipPath></defs><g class="cls-2"><g id="Capa_2" data-name="Capa 2"><g id="Layer_1" data-name="Layer 1"><polygon class="cls-3" points="153.82 370.82 155.47 2192.07 1249.82 2189.32 1248.16 368.07 153.82 370.82"/><g class="cls-4"><polygon class="cls-5" points="412.57 152.02 128.63 2225.06 283.21 2283.71 567.16 210.66 412.57 152.02"/><polygon class="cls-5" points="1212.41 356.51 928.46 2429.55 1083.05 2488.2 1367 415.15 1212.41 356.51"/><polygon class="cls-6" points="1205.48 200.06 1041.11 2610.72 1220.87 2644.66 1385.24 234.01 1205.48 200.06"/><polygon class="cls-6" points="164.37 0 0 2410.66 179.76 2444.6 344.13 33.95 164.37 0"/><polygon class="cls-6" points="581.35 130.38 119.87 2431.74 291.48 2527.05 752.96 225.69 581.35 130.38"/></g></g></g></g></svg>