<?xml version="1.0" encoding="utf-8"?>
<!-- Generator: Adobe Illustrator 24.1.2, SVG Export Plug-In . SVG Version: 6.00 Build 0)  -->
<svg version="1.1" id="Capa_1" xmlns="http://www.w3.org/2000/svg" xmlns:xlink="http://www.w3.org/1999/xlink" x="0px" y="0px"
	 viewBox="0 0 218.5 70" style="enable-background:new 0 0 218.5 70;" xml:space="preserve">
<style type="text/css">
	.st0{fill:#27292D;}
	.st1{fill:#CDE501;}
	.st2{fill:#D2D904;}
	.st3{fill:#F2CB05;}
	.st4{fill:#F2F2F2;}
	.st5{fill:#384049;}
	.st6{fill:none;}
</style>
<rect x="-106.6" y="-578.2" class="st0" width="60.9" height="60.9"/>
<rect x="-16.6" y="-578.2" class="st1" width="60.9" height="60.9"/>
<rect x="73.4" y="-578.2" class="st2" width="60.9" height="60.9"/>
<rect x="165.5" y="-578.2" class="st3" width="60.9" height="60.9"/>
<rect x="264.1" y="-578.2" class="st4" width="60.9" height="60.9"/>
<g>
	<ellipse class="st1" cx="39.1" cy="35" rx="29.9" ry="35"/>
	<polygon class="st0" points="26,66.5 21.3,63.1 21.3,6.9 26,3.5 	"/>
	<polygon class="st0" points="65.6,18.5 67.5,24 10.6,24.4 11.6,21.4 12.6,18.9 	"/>
	<path class="st0" d="M44.8,20.3L44.8,20.3c-1.2,1.1-1.5,3.1-0.6,4.5c0,0,0,0,0,0l-1.3-2.1c-0.9-1.4-2.7-1.7-3.9-0.7c0,0,0,0,0,0
		l0,0c-1.2,1.1-1.5,3.1-0.6,4.6c0,0,0,0,0,0c-0.9-1.4-2.7-1.7-3.9-0.7c0,0,0,0,0,0l0,0c-1.2,1.1-1.5,3.1-0.6,4.6c0,0,0,0,0,0
		l-6.3-9.9c-0.9-1.4-2.7-1.7-3.9-0.7c0,0,0,0,0,0l0,0c-1.2,1.1-1.5,3.1-0.6,4.6c0,0,0,0,0,0l5.3,8.2l8.2,12.8l-6-2.8
		c-1.5-0.7-3.1,0.1-3.8,1.8l0,0c-0.6,1.7,0,3.6,1.4,4.4L38,55c4.7,2.8,10.3,2.3,14.5-1.4l0,0c6.1-5.3,7.3-15.4,2.7-22.5L48.7,21
		C47.8,19.5,46,19.3,44.8,20.3z"/>
	<path class="st5" d="M44.4,19.6c-0.5,0.5-1,1.1-1.2,1.8c-1.3-1.2-3.2-1.3-4.6-0.1c-0.9,0.7-1.4,1.8-1.5,3.1
		c-1.7-0.4-3.4,0.6-4.1,2.4l-4.2-6.8c-1.2-2-3.6-2.6-5.3-1.2s-2.2,4.2-1,6.2c0,0.1,0.1,0.1,0.1,0.2l3.2,5.2c0.3,0.5,1,0.7,1.4,0.3
		c0.5-0.4,0.6-1.1,0.2-1.7l-3.2-5.2c-0.5-0.9-0.3-2.2,0.5-2.9c0.8-0.6,1.8-0.4,2.4,0.4l10.1,16.5c0.3,0.5,1,0.7,1.4,0.3
		c0.5-0.4,0.6-1.1,0.2-1.7l0,0l-4-6.4c-0.6-0.9-0.5-2.2,0.3-2.9c0.8-0.7,1.9-0.5,2.5,0.4c0,0,0,0.1,0.1,0.1l0.6,1l3.4,5.5
		c0.3,0.5,1,0.6,1.4,0.2c0.4-0.4,0.5-1.1,0.2-1.6L40,27.1l-0.6-1c-0.6-0.9-0.4-2.2,0.3-2.9c0.8-0.7,1.9-0.5,2.5,0.4c0,0,0,0,0,0.1
		l1.3,2.1l1,1.7l1.6,2.6c0.3,0.5,1,0.7,1.4,0.3c0.5-0.4,0.6-1.1,0.2-1.7l-1.6-2.6l-1-1.7c-0.6-0.9-0.5-2.2,0.3-2.9
		c0.8-0.7,1.9-0.5,2.5,0.4c0,0,0,0.1,0.1,0.1l6.3,10.3c0.4,0.7,0.8,1.5,1.2,2.3c0.2,0.6,0.9,0.9,1.4,0.6c0.1,0,0.1-0.1,0.2-0.1
		c0.4-0.3,0.5-1,0.3-1.5c-0.4-0.9-0.8-1.9-1.4-2.7l-6.3-10.3C48.5,18.6,46.1,18.2,44.4,19.6C44.4,19.6,44.4,19.6,44.4,19.6z"/>
	<path class="st5" d="M56.5,43.9c-0.6,3.7-2.4,7-5,9.2c-4,3.3-9.2,3.7-13.5,1l-9.6-6.1c-0.9-0.6-1.3-1.9-0.8-3c0.5-1,1.5-1.4,2.4-1
		l6,3c0.4,0.2,0.9,0.1,1.2-0.4c0.3-0.4,0.3-1,0-1.5l-5.9-9.6c-0.3-0.5-1-0.6-1.4-0.2c-0.4,0.4-0.5,1.1-0.2,1.6l3.8,6.1l-2.6-1.3
		c-2-1-4.3,0.1-5.2,2.4c-0.8,2.2-0.1,4.8,1.7,6l9.6,6.1c2.4,1.6,5.2,2.3,8,2.1c2.8-0.2,5.4-1.3,7.7-3.2c3-2.5,5.1-6.4,5.9-10.7
		c0.2-0.6-0.1-1.3-0.7-1.5s-1.1,0.2-1.3,0.8C56.6,43.8,56.5,43.8,56.5,43.9L56.5,43.9z"/>
</g>
<rect x="-151.9" y="301.7" class="st6" width="460.1" height="71"/>
<g>
	<path class="st4" d="M77.4,24.9v22.8h-4.2V24.9H77.4z M82.8,46.2L78,34.6v-7.9l4.9,11.6V46.2z M87.6,24.9v22.8h-4.2V24.9H87.6z"/>
	<path class="st4" d="M89.9,30.8c0-4.1,2.2-6.2,6.5-6.4v3.7c-1.3,0.2-1.9,1-1.9,2.4V42c0,1.5,0.6,2.3,1.9,2.4v3.7
		c-4.3-0.2-6.5-2.5-6.5-7V30.8z M99.1,30.5c0-1.5-0.6-2.3-1.9-2.4v-3.7c4.4,0,6.6,2.2,6.6,6.5v10.4c0,4.5-2.2,6.7-6.6,6.9v-3.7
		c1.3-0.1,1.9-0.9,1.9-2.4V30.5z"/>
	<path class="st4" d="M119.1,24.9v3.8h-13.9v-3.8H119.1z M109.9,29.6h4.5v18.1h-4.5L109.9,29.6z"/>
	<path class="st4" d="M117.1,37.3h8v2.4h-8V37.3z"/>
	<path class="st4" d="M127.5,30.6c0-3.9,2.1-6,6.4-6.2v3.7c-1.2,0.2-1.8,0.9-1.8,2.3v11.9c0,1.3,0.6,2,1.8,2.2v3.7
		c-4.2-0.2-6.4-2.4-6.4-6.7V30.6z M134.7,24.4c4.4,0,6.6,2.2,6.6,6.3v2.1h-4.7v-2.4c0-1.5-0.6-2.2-1.9-2.3V24.4z M134.7,44.5
		c1.3-0.1,1.9-0.9,1.9-2.2v-3.1h4.7v2.4c0,4.3-2.2,6.4-6.6,6.6V44.5z"/>
	<path class="st4" d="M148,24.9v22.8h-4.5V24.9H148z M154,47.7h-5.2v-3.8h5.2L154,47.7z"/>
	<path class="st4" d="M155.7,24.9h4.6v22.8h-4.6V24.9z"/>
	<path class="st4" d="M162.6,30.6c0-3.9,2.1-6,6.4-6.2v3.7c-1.2,0.2-1.8,0.9-1.8,2.3v11.9c0,1.3,0.6,2,1.8,2.2v3.7
		c-4.2-0.2-6.4-2.4-6.4-6.7V30.6z M169.9,24.4c4.4,0,6.6,2.2,6.6,6.3v2.1h-4.7v-2.4c0-1.5-0.6-2.2-1.9-2.3L169.9,24.4z M169.9,44.5
		c1.3-0.1,1.9-0.9,1.9-2.2v-3.1h4.7v2.4c0,4.3-2.2,6.4-6.6,6.6L169.9,44.5z"/>
	<path class="st4" d="M178.7,47.7V24.9h4.5v22.8H178.7z M183.9,33.2l2-3.9l7.5,18.3h-4.8l-3.8-9.5l-0.9,1.6L183.9,33.2z M193,24.9
		l-4.7,7.9l-1.8-4.3l1.8-3.5H193z"/>
	<path class="st4" d="M199.1,40.9c0.1,2,0.9,3.1,2.5,3.3v3.9c-4.5-0.2-6.8-2.6-6.8-7.2H199.1z M209.2,42.4c0,3.7-2.2,5.7-6.6,5.8
		v-3.9c1.5-0.2,2.2-0.8,2.2-1.8c-0.1-0.7-0.5-1.4-1.2-2c-1.1-1-2.2-1.9-3.2-2.8c-1-0.9-1.9-1.7-2.9-2.4c-1.3-1.2-2.2-2.9-2.4-4.8
		c0-3.8,2.1-5.8,6.4-5.9v3.9c-0.7,0.1-1.2,0.3-1.5,0.6c-0.3,0.3-0.4,0.8-0.4,1.5c0,0.6,0.2,1.2,0.7,1.5c0.3,0.2,0.7,0.5,1.1,0.8
		c0.4,0.3,0.9,0.7,1.3,1.1s0.9,0.8,1.4,1.1l1.2,1l0.9,0.7c0.1,0.1,0.2,0.2,0.4,0.3C208.4,38.5,209.2,40.3,209.2,42.4L209.2,42.4z
		 M204.6,31.1c0-1.6-0.6-2.5-1.9-2.7v-3.9c4.3,0.2,6.4,2.4,6.4,6.6L204.6,31.1z"/>
</g>
</svg>
