<?xml version="1.0" encoding="utf-8"?>
<!-- Generator: Adobe Illustrator 24.1.2, SVG Export Plug-In . SVG Version: 6.00 Build 0)  -->
<svg version="1.1" id="Capa_1" xmlns:svgjs="http://svgjs.com/svgjs"
	 xmlns="http://www.w3.org/2000/svg" xmlns:xlink="http://www.w3.org/1999/xlink" x="0px" y="0px" viewBox="0 0 520.6 674"
	 style="enable-background:new 0 0 520.6 674;" xml:space="preserve">
<style type="text/css">
	.st0{fill:#CDE501;}
	.st1{fill:#7C7E73;}
	.st2{fill:#EAF205;}
	.st3{fill:#27292D;}
	.st4{fill:#D2D904;}
	.st5{fill:#F2CB05;}
	.st6{fill:#F2F2F2;}
	.st7{fill:#384049;}
	.st8{fill:none;}
	.st9{enable-background:new    ;}
</style>
<circle class="st0" cx="262.6" cy="272" r="234.2"/>
<rect x="40.2" y="-82" class="st1" width="60.9" height="60.9"/>
<rect x="130.2" y="-82" class="st2" width="60.9" height="60.9"/>
<g>
	<polygon class="st3" points="160,482.6 123.1,460.2 123.1,83.8 160,61.4 	"/>
	<polygon class="st3" points="470.2,161.6 485,198.4 39.2,201.3 46.7,181 54.6,164.3 	"/>
</g>
<rect x="220.2" y="-82" class="st4" width="60.9" height="60.9"/>
<rect x="312.3" y="-82" class="st5" width="60.9" height="60.9"/>
<rect x="410.9" y="-82" class="st6" width="60.9" height="60.9"/>
<g>
	<path class="st3" d="M307.1,173.8L307.1,173.8c-9.7,7.3-11.6,21-4.3,30.6l-10.5-13.9c-7.3-9.7-21-11.6-30.6-4.3l0,0
		c-9.7,7.3-11.6,21-4.3,30.6c-7.3-9.7-21-11.6-30.6-4.3l0,0c-9.7,7.3-11.6,21-4.3,30.6L172.8,177c-7.3-9.7-21-11.6-30.6-4.3l0,0
		c-9.7,7.3-11.6,21-4.3,30.6l41.2,54.8l64.4,85.7L196.3,325c-11.6-4.6-24.7,0.9-29.6,12.3l0,0c-4.7,11.1-0.1,23.9,10.6,29.4
		l76.3,39.4c36.7,18.9,81,15.2,114-9.6l0,0c47.5-35.7,57-103.2,21.3-150.7L338,178C330.5,168.5,316.7,166.6,307.1,173.8z"/>
	<g>
		<path class="st7" d="M304.2,168.9c-4.4,3.2-7.7,7.4-9.8,12.1c-10.2-7.9-24.8-8.6-35.9-0.7c-7,5-11.2,12.6-12.2,20.5
			c-7.9-1.6-16.3,0-23.3,5c-4,2.9-7.1,6.6-9.2,10.8L181,171.1c-9.7-13.4-28.4-16.5-41.9-6.9s-16.5,28.4-6.9,41.9l24.9,34.7
			c2.6,3.6,7.7,4.5,11.3,1.9s4.5-7.7,1.9-11.3l-24.9-34.7c-4.4-6.2-3-14.8,3.1-19.2s14.8-3,19.2,3.1L247,290.8
			c2.6,3.6,7.7,4.5,11.3,1.9c3.6-2.6,4.5-7.7,1.9-11.3l-31-43.1c-4.4-6.2-3-14.8,3.1-19.2s14.8-3,19.2,3.1l4.6,6.4l26.4,36.7
			c2.6,3.6,7.7,4.5,11.3,1.9c3.6-2.6,4.5-7.7,1.9-11.3l-26.4-36.7l-4.6-6.4c-4.4-6.2-3-14.8,3.1-19.2s14.8-3,19.2,3.1l10.2,14.1
			l8.2,11.4l12.6,17.6c2.6,3.6,7.7,4.5,11.3,1.9c3.6-2.6,4.5-7.7,1.9-11.3l-12.6-17.6l-8.2-11.4c-4.4-6.2-3-14.8,3.1-19.2
			s14.8-3,19.2,3.1l49.5,68.8c3.5,4.9,6.6,10.1,9.2,15.5c1.9,4,6.8,5.8,10.8,3.9c0.5-0.2,0.9-0.5,1.3-0.7c3.1-2.2,4.3-6.5,2.6-10.1
			c-3-6.3-6.6-12.4-10.7-18.1L346,175.8C336.4,162.3,317.6,159.3,304.2,168.9z"/>
		<path class="st7" d="M399.1,331.6c-4.9,24.8-19,46.5-39.5,61.3c-30.8,22.1-72.2,24.7-105.6,6.6l-75.4-41
			c-6.8-3.7-9.6-12.1-6.5-19.2c3.3-7.3,12-10.7,19.3-7.6l46.7,19.8c3.3,1.4,7.2,0.4,9.5-2.4s2.4-6.8,0.2-9.8l-46.4-64.5
			c-2.6-3.6-7.7-4.5-11.3-1.9s-4.5,7.7-1.9,11.3l29.5,41.1l-20.1-8.5c-15.7-6.6-33.4,0.3-40.4,15.8c-6.7,14.8-0.7,32.4,13.5,40.1
			l75.4,41c19.1,10.4,40.7,15.2,62.5,13.8c21.7-1.4,42.6-8.8,60.3-21.5c23.9-17.2,40.2-42.5,45.9-71.3c0.9-4.4-2-8.7-6.4-9.5
			C404.2,324.4,400,327.2,399.1,331.6z"/>
	</g>
</g>
<rect x="37.2" y="538.7" class="st8" width="460.1" height="71"/>
<g class="st9">
	<path class="st6" d="M70.1,539.6v58.6H57.5v-58.6H70.1z M86.4,594.3l-14.7-29.7v-20.4l14.7,29.9V594.3z M100.7,539.6v58.6H87.9
		v-58.6H100.7z"/>
	<path class="st6" d="M107.7,554.7c0-10.5,6.5-16,19.5-16.4v9.5c-3.8,0.4-5.7,2.5-5.7,6.2v29.5c0,3.8,1.9,5.9,5.7,6.3v9.5
		c-13-0.5-19.5-6.5-19.5-17.9V554.7z M135.5,554.1c0-3.8-1.9-5.9-5.8-6.2v-9.6c13.3,0.1,19.9,5.7,19.9,16.7v26.8
		c0,11.4-6.6,17.3-19.9,17.6v-9.5c3.9-0.3,5.8-2.4,5.8-6.3V554.1z"/>
	<path class="st6" d="M195.8,539.6v9.8H154v-9.8H195.8z M168.1,551.7h13.5v46.5h-13.5V551.7z"/>
	<path class="st6" d="M189.8,571.5h24v6.1h-24V571.5z"/>
	<path class="st6" d="M220.8,554.3c0-10.1,6.4-15.4,19.2-16v9.6c-3.6,0.4-5.4,2.4-5.4,5.8v30.5c0,3.3,1.8,5.1,5.4,5.6v9.5
		c-12.8-0.5-19.2-6.2-19.2-17.2V554.3z M242.8,538.2c13.3,0.1,19.9,5.5,19.9,16.3v5.5h-14.1v-6.2c0-3.7-1.9-5.7-5.8-5.9V538.2z
		 M242.8,589.9c3.9-0.3,5.8-2.2,5.8-5.6v-8.1h14.1v6.3c0,11-6.6,16.6-19.9,16.9V589.9z"/>
	<path class="st6" d="M282.8,539.6v58.6h-13.5v-58.6H282.8z M300.9,598.2h-15.5v-9.8h15.5V598.2z"/>
	<path class="st6" d="M305.9,539.6h13.8v58.6h-13.8V539.6z"/>
	<path class="st6" d="M326.7,554.3c0-10.1,6.4-15.4,19.2-16v9.6c-3.6,0.4-5.4,2.4-5.4,5.8v30.5c0,3.3,1.8,5.1,5.4,5.6v9.5
		c-12.8-0.5-19.2-6.2-19.2-17.2V554.3z M348.6,538.2c13.3,0.1,19.9,5.5,19.9,16.3v5.5h-14.1v-6.2c0-3.7-2-5.7-5.8-5.9V538.2z
		 M348.6,589.9c3.9-0.3,5.8-2.2,5.8-5.6v-8.1h14.1v6.3c0,11-6.6,16.6-19.9,16.9V589.9z"/>
	<path class="st6" d="M375.2,598.2v-58.6h13.6v58.6H375.2z M390.9,561l6.1-10l22.5,47.1h-14.4l-11.4-24.5l-2.8,4.1V561z
		 M418.3,539.6l-14.1,20.3l-5.5-11.2l5.4-9.1H418.3z"/>
	<path class="st6" d="M436.7,580.8c0.1,5.2,2.6,8,7.5,8.4v10.1c-13.6-0.5-20.4-6.7-20.4-18.6H436.7z M467.3,584.5
		c0,9.6-6.6,14.6-19.8,14.9v-10.1c4.4-0.4,6.6-2,6.6-4.7c-0.3-1.9-1.5-3.6-3.5-5.2c-3.4-2.5-6.6-4.9-9.5-7.1c-3-2.2-5.9-4.3-8.7-6.2
		c-4-3.2-6.4-7.3-7.3-12.4c0-9.8,6.4-14.8,19.2-15.2v9.9c-2.2,0.2-3.7,0.8-4.5,1.7c-0.8,0.9-1.2,2.2-1.2,3.9c0,1.6,0.7,2.9,2,3.8
		c0.9,0.5,2,1.2,3.3,2.1c1.3,0.9,2.6,1.8,4,2.7s2.8,1.9,4.2,2.9c1.4,1,2.6,1.9,3.7,2.7c1.1,0.8,2,1.4,2.7,1.9
		c0.7,0.5,1.1,0.7,1.1,0.7C464.6,574.7,467.3,579.2,467.3,584.5z M453.2,555.5c0-4.1-1.9-6.4-5.8-7v-9.9
		c12.9,0.5,19.4,6.1,19.4,16.9H453.2z"/>
</g>
</svg>
