<?xml version="1.0" encoding="utf-8"?>
<!-- Generator: Adobe Illustrator 24.1.2, SVG Export Plug-In . SVG Version: 6.00 Build 0)  -->
<svg version="1.1" id="Capa_1" xmlns:svgjs="http://svgjs.com/svgjs"
	 xmlns="http://www.w3.org/2000/svg" xmlns:xlink="http://www.w3.org/1999/xlink" x="0px" y="0px" viewBox="0 0 520.6 674"
	 style="enable-background:new 0 0 520.6 674;" xml:space="preserve">
<style type="text/css">
	.st0{fill:#EAF205;}
	.st1{fill:#7C7E73;}
	.st2{fill:#D2D904;}
	.st3{fill:#F2CB05;}
	.st4{fill:#F2F2F2;}
	.st5{fill:#62635E;}
	.st6{fill:none;}
	.st7{font-family:'Gunplay-Regular';}
	.st8{font-size:74px;}
</style>
<circle class="st0" cx="262.6" cy="272" r="234.2"/>
<rect x="40.2" y="-82" class="st1" width="60.9" height="60.9"/>
<rect x="130.2" y="-82" class="st0" width="60.9" height="60.9"/>
<g>
	<polygon class="st1" points="160,482.6 123.1,460.2 123.1,83.8 160,61.4 	"/>
	<polygon class="st1" points="470.2,161.6 485,198.4 39.2,201.3 46.7,181 54.6,164.3 	"/>
</g>
<rect x="220.2" y="-82" class="st2" width="60.9" height="60.9"/>
<rect x="312.3" y="-82" class="st3" width="60.9" height="60.9"/>
<rect x="410.9" y="-82" class="st4" width="60.9" height="60.9"/>
<g>
	<path class="st1" d="M307.1,173.8L307.1,173.8c-9.7,7.3-11.6,21-4.3,30.6l-10.5-13.9c-7.3-9.7-21-11.6-30.6-4.3l0,0
		c-9.7,7.3-11.6,21-4.3,30.6c-7.3-9.7-21-11.6-30.6-4.3l0,0c-9.7,7.3-11.6,21-4.3,30.6L172.8,177c-7.3-9.7-21-11.6-30.6-4.3l0,0
		c-9.7,7.3-11.6,21-4.3,30.6l41.2,54.8l64.4,85.7L196.3,325c-11.6-4.6-24.7,0.9-29.6,12.3l0,0c-4.7,11.1-0.1,23.9,10.6,29.4
		l76.3,39.4c36.7,18.9,81,15.2,114-9.6l0,0c47.5-35.7,57-103.2,21.3-150.7L338,178C330.5,168.5,316.7,166.6,307.1,173.8z"/>
	<g>
		<path class="st5" d="M304.2,168.9c-4.4,3.2-7.7,7.4-9.8,12.1c-10.2-7.9-24.8-8.6-35.9-0.7c-7,5-11.2,12.6-12.2,20.5
			c-7.9-1.6-16.3,0-23.3,5c-4,2.9-7.1,6.6-9.2,10.8L181,171.1c-9.7-13.4-28.4-16.5-41.9-6.9s-16.5,28.4-6.9,41.9l24.9,34.7
			c2.6,3.6,7.7,4.5,11.3,1.9s4.5-7.7,1.9-11.3l-24.9-34.7c-4.4-6.2-3-14.8,3.1-19.2s14.8-3,19.2,3.1L247,290.8
			c2.6,3.6,7.7,4.5,11.3,1.9c3.6-2.6,4.5-7.7,1.9-11.3l-31-43.1c-4.4-6.2-3-14.8,3.1-19.2s14.8-3,19.2,3.1l4.6,6.4l26.4,36.7
			c2.6,3.6,7.7,4.5,11.3,1.9c3.6-2.6,4.5-7.7,1.9-11.3l-26.4-36.7l-4.6-6.4c-4.4-6.2-3-14.8,3.1-19.2s14.8-3,19.2,3.1l10.2,14.1
			l8.2,11.4l12.6,17.6c2.6,3.6,7.7,4.5,11.3,1.9c3.6-2.6,4.5-7.7,1.9-11.3l-12.6-17.6l-8.2-11.4c-4.4-6.2-3-14.8,3.1-19.2
			s14.8-3,19.2,3.1l49.5,68.8c3.5,4.9,6.6,10.1,9.2,15.5c1.9,4,6.8,5.8,10.8,3.9c0.5-0.2,0.9-0.5,1.3-0.7c3.1-2.2,4.3-6.5,2.6-10.1
			c-3-6.3-6.6-12.4-10.7-18.1L346,175.8C336.4,162.3,317.6,159.3,304.2,168.9z"/>
		<path class="st5" d="M399.1,331.6c-4.9,24.8-19,46.5-39.5,61.3c-30.8,22.1-72.2,24.7-105.6,6.6l-75.4-41
			c-6.8-3.7-9.6-12.1-6.5-19.2c3.3-7.3,12-10.7,19.3-7.6l46.7,19.8c3.3,1.4,7.2,0.4,9.5-2.4s2.4-6.8,0.2-9.8l-46.4-64.5
			c-2.6-3.6-7.7-4.5-11.3-1.9s-4.5,7.7-1.9,11.3l29.5,41.1l-20.1-8.5c-15.7-6.6-33.4,0.3-40.4,15.8c-6.7,14.8-0.7,32.4,13.5,40.1
			l75.4,41c19.1,10.4,40.7,15.2,62.5,13.8c21.7-1.4,42.6-8.8,60.3-21.5c23.9-17.2,40.2-42.5,45.9-71.3c0.9-4.4-2-8.7-6.4-9.5
			C404.2,324.4,400,327.2,399.1,331.6z"/>
	</g>
</g>
<rect x="37.2" y="538.7" class="st6" width="460.1" height="71"/>
<text transform="matrix(1 0 0 1 53.8306 598.1748)" class="st4 st7 st8">NOT-CLICKS</text>
</svg>
