<svg xmlns="http://www.w3.org/2000/svg" viewBox="0 0 200 70"><defs><style>.cls-1{fill:#cde501;}.cls-2{fill:#27292d;}.cls-3{fill:#384049;}.cls-4{fill:#f2f2f2;}</style></defs><g id="Capa_2" data-name="Capa 2"><g id="Capa_1-2" data-name="Capa 1"><ellipse class="cls-1" cx="29.87" cy="35" rx="29.87" ry="35"/><polygon class="cls-2" points="16.79 66.47 12.08 63.13 12.08 6.87 16.79 3.53 16.79 66.47"/><polygon class="cls-2" points="56.35 18.5 58.24 24 1.38 24.43 2.33 21.4 3.34 18.91 56.35 18.5"/><path class="cls-2" d="M35.55,20.33h0A3.61,3.61,0,0,0,35,24.87l0,0-1.34-2.08a2.53,2.53,0,0,0-3.89-.66l0,0h0a3.62,3.62,0,0,0-.56,4.55v0a2.52,2.52,0,0,0-3.89-.65h0a3.63,3.63,0,0,0-.56,4.55v0L18.41,20.8a2.52,2.52,0,0,0-3.89-.65h0A3.64,3.64,0,0,0,14,24.72h0l5.26,8.19,8.21,12.81-6-2.81a2.8,2.8,0,0,0-3.77,1.84h0A3.71,3.71,0,0,0,19,49.15L28.73,55a12.1,12.1,0,0,0,14.54-1.43h0c6-5.35,7.27-15.42,2.71-22.52L39.49,21A2.58,2.58,0,0,0,35.55,20.33Z"/><path class="cls-3" d="M35.18,19.59a4.43,4.43,0,0,0-1.25,1.82,3.41,3.41,0,0,0-4.58-.11,4.66,4.66,0,0,0-1.55,3.07,3.65,3.65,0,0,0-4.15,2.36l-4.18-6.8a3.49,3.49,0,0,0-5.32-1.17,5,5,0,0,0-1,6.24,1.4,1.4,0,0,0,.1.16l3.17,5.19a.94.94,0,0,0,1.44.28,1.35,1.35,0,0,0,.25-1.69l-3.18-5.19a2.27,2.27,0,0,1,.48-2.85,1.58,1.58,0,0,1,2.36.45L27.89,37.81a.94.94,0,0,0,1.44.29,1.36,1.36,0,0,0,.24-1.69h0L25.62,30a2.29,2.29,0,0,1,.31-2.89,1.59,1.59,0,0,1,2.46.37l.07.11.59,1L32.42,34a.93.93,0,0,0,1.44.25,1.36,1.36,0,0,0,.24-1.65l-3.37-5.49-.59-.95a2.28,2.28,0,0,1,.35-2.87,1.58,1.58,0,0,1,2.45.4.16.16,0,0,1,0,.07l1.3,2.1,1,1.71,1.61,2.63a.94.94,0,0,0,1.44.28,1.36,1.36,0,0,0,.24-1.69L37,26.16l-1-1.7a2.29,2.29,0,0,1,.31-2.89,1.59,1.59,0,0,1,2.46.37l.07.11,6.32,10.29a16.67,16.67,0,0,1,1.17,2.31,1,1,0,0,0,1.38.59l.16-.11a1.36,1.36,0,0,0,.34-1.51,19,19,0,0,0-1.37-2.7l-6.3-10.3a3.47,3.47,0,0,0-5.33-1Z"/><path class="cls-3" d="M47.28,43.91a15.2,15.2,0,0,1-5,9.16,11.25,11.25,0,0,1-13.47,1l-9.61-6.13a2.42,2.42,0,0,1-.75-3,1.78,1.78,0,0,1,2.38-1l6,3A1,1,0,0,0,28,46.52a1.35,1.35,0,0,0,0-1.46l-5.91-9.64a.94.94,0,0,0-1.45-.23,1.34,1.34,0,0,0-.24,1.63L24.15,43l-2.57-1.28c-2-1-4.27.06-5.15,2.37a5.08,5.08,0,0,0,1.72,6l9.62,6.13a12.92,12.92,0,0,0,8,2.07A13.58,13.58,0,0,0,43.43,55a17.67,17.67,0,0,0,5.85-10.66,1.23,1.23,0,0,0-.68-1.49,1,1,0,0,0-1.27.8,1.57,1.57,0,0,0,0,.23Z"/><path class="cls-4" d="M68.17,24.89v22.8H64V24.89Zm5.41,21.27L68.71,34.62V26.68l4.87,11.63Zm4.76-21.27v22.8H74.09V24.89Z"/><path class="cls-4" d="M80.65,30.76q0-6.14,6.46-6.36v3.71a2.11,2.11,0,0,0-1.89,2.42V42c0,1.48.63,2.3,1.89,2.45v3.68q-6.45-.31-6.46-7Zm9.21-.23c0-1.48-.64-2.28-1.94-2.42V24.37q6.61.06,6.61,6.51V41.29q0,6.68-6.61,6.85V44.46c1.29-.13,1.94-1,1.94-2.45Z"/><path class="cls-4" d="M109.88,24.89v3.83H96V24.89Zm-9.19,4.72h4.49V47.69h-4.47Z"/><path class="cls-4" d="M107.89,37.32h8v2.36h-8Z"/><path class="cls-4" d="M118.21,30.62q0-5.88,6.36-6.23v3.74a2,2,0,0,0-1.79,2.28V42.27a2,2,0,0,0,1.79,2.19v3.68q-6.36-.28-6.36-6.7Zm7.27-6.25q6.6.06,6.61,6.33v2.13h-4.67V30.41c0-1.45-.65-2.22-1.94-2.3Zm0,20.09a2,2,0,0,0,1.94-2.19V39.13h4.67v2.45q0,6.39-6.61,6.56Z"/><path class="cls-4" d="M138.77,24.89v22.8H134.3V24.89Zm6,22.8h-5.15V43.86h5.15Z"/><path class="cls-4" d="M146.43,24.89H151v22.8h-4.59Z"/><path class="cls-4" d="M153.36,30.62q0-5.88,6.36-6.23v3.74a2,2,0,0,0-1.8,2.28V42.27a2,2,0,0,0,1.8,2.19v3.68q-6.36-.28-6.36-6.7Zm7.27-6.25q6.6.06,6.6,6.33v2.13h-4.66V30.41c0-1.45-.65-2.22-1.94-2.3Zm0,20.09a2,2,0,0,0,1.94-2.19V39.13h4.66v2.45q0,6.39-6.6,6.56Z"/><path class="cls-4" d="M169.45,47.69V24.89H174v22.8Zm5.2-14.45,2-3.89,7.47,18.34h-4.79l-3.79-9.53-.93,1.61Zm9.12-8.35-4.69,7.88-1.82-4.34,1.8-3.54Z"/><path class="cls-4" d="M189.86,40.92c0,2,.87,3.11,2.48,3.28v3.94q-6.78-.28-6.78-7.22ZM200,42.36q0,5.61-6.58,5.78V44.23c1.45-.15,2.18-.77,2.19-1.84a3.44,3.44,0,0,0-1.16-2l-3.17-2.76c-1-.87-1.95-1.67-2.9-2.42a7.93,7.93,0,0,1-2.43-4.8q0-5.72,6.36-5.9v3.85a2.19,2.19,0,0,0-1.5.65,2.52,2.52,0,0,0-.4,1.51,1.85,1.85,0,0,0,.67,1.5c.29.21.66.48,1.08.82s.87.69,1.34,1.06L194.89,35l1.24,1,.88.74a2.48,2.48,0,0,0,.37.29A6.63,6.63,0,0,1,200,42.36Zm-4.67-11.28c0-1.59-.64-2.5-1.91-2.74V24.49q6.44.29,6.43,6.59Z"/></g></g></svg>