<svg xmlns="http://www.w3.org/2000/svg" xmlns:xlink="http://www.w3.org/1999/xlink" viewBox="0 0 697.02 755.24"><defs><style>.cls-1{fill:none;}.cls-2{isolation:isolate;}.cls-3{fill:#f2cb05;}.cls-4{clip-path:url(#clip-path);}.cls-5{fill:#3d3d3d;}.cls-5,.cls-6{mix-blend-mode:overlay;}.cls-6{fill:#b3b3b3;}</style><clipPath id="clip-path" transform="translate(77.4 105.11)"><rect class="cls-1" x="15.7" y="-14.89" width="520.09" height="550.65" transform="matrix(0, -1, 1, 0, 15.74, 536.6)"/></clipPath></defs><g class="cls-2"><g id="Capa_2" data-name="Capa 2"><g id="Layer_1" data-name="Layer 1"><rect class="cls-3" x="15.7" y="-14.89" width="520.09" height="550.65" transform="matrix(0, -1, 1, 0, 93.14, 641.71)"/><g class="cls-4"><polygon class="cls-5" points="207.6 43.41 64.72 635.41 142.51 652.16 285.38 60.16 207.6 43.41"/><polygon class="cls-5" points="610.06 101.81 467.18 693.81 544.97 710.55 687.84 118.56 610.06 101.81"/><polygon class="cls-6" points="606.57 57.13 523.86 745.54 614.31 755.24 697.02 66.83 606.57 57.13"/><polygon class="cls-6" points="82.71 0 0 688.41 90.45 698.1 173.16 9.7 82.71 0"/><polygon class="cls-6" points="292.52 37.23 60.32 694.43 146.67 721.65 378.87 64.45 292.52 37.23"/></g></g></g></g></svg>